<svg height="24" width="24" viewBox="0 0 24 24" xmlns="http://www.w3.org/2000/svg" xml:space="preserve">
  <path d="M9.907 3.982c.388-.776 1.153-1.261 1.987-1.261s1.599.485 1.987 1.261L22.02 20.26a2.54 2.54 0 0 1-.068 2.394c-.421.731-1.175 1.177-1.988 1.177H3.775c-.803 0-1.547-.441-1.962-1.162a2.51 2.51 0 0 1-.068-2.363z" fill="#191c4f" transform="matrix(.88149 0 0 .83951 1.515 .993)"/>
  <path d="M.101-.23.09-.728h.158L.237-.23zm.068.239a.08.08 0 0 1-.062-.023.08.08 0 0 1-.025-.059q0-.038.025-.06a.1.1 0 0 1 .062-.023q.039 0 .063.023a.08.08 0 0 1 .024.06.08.08 0 0 1-.024.059.1.1 0 0 1-.063.023" fill="#fff" transform="matrix(12.4721 0 0 13.00004 9.892 18.833)"/>
</svg>
