<svg width="190" height="164" viewBox="0 0 190 164" fill="none" xmlns="http://www.w3.org/2000/svg" class="program-map">
<style>
  .program-map[data-location="iniad"] .map.iniad { fill: #6799CB; }
  .program-map[data-location="wellb"] .map.wellb { fill: #EF9B5F; }
  .program-map[data-location="helspo"] .map.helspo { fill: #62BC89; }

  .program-map[data-location="iniad"] .line.iniad { display: initial; }
  .program-map[data-location="wellb"] .line.wellb { display: initial; }
  .program-map[data-location="helspo"] .line.helspo { display: initial; }

  .program-map[data-location="iniad"] .text.iniad { display: initial; }
  .program-map[data-location="wellb"] .text.wellb { display: initial; }
  .program-map[data-location="helspo"] .text.helspo { display: initial; }

  .program-map .map.iniad, .program-map .map.wellb, .program-map .map.helspo {
    fill: #DDD;
  }

  .program-map .line.iniad, .program-map .line.wellb, .program-map .line.helspo {
    display: none;
  }

  .program-map .text.iniad, .program-map .text.wellb, .program-map .text.helspo {
    display: none;
  }
</style>
<path class="map helspo" d="M141.087 84.4203L153.044 73.5508L190 117.754L149.421 149.638L130.942 129.71L159.928 106.522L141.087 84.4203Z" />
<path class="map helspo" d="M130.942 95.2891L142.174 107.97L125.145 122.101L114.275 109.057L130.942 95.2891Z" />
<path class="map wellb" d="M107.029 42.3911L120.073 30.7969L144.348 57.9708L100.87 97.1012L82.3916 78.6229L113.551 50.7244L107.029 42.3911Z" />
<path class="map iniad" d="M77.3188 20.6522L58.4783 48.913L68.6232 56.5217L87.1014 32.1558L99.4203 42.7536L76.5942 73.1884L40 46.7391L72.2464 0L113.913 10.5072L111.377 27.5362L77.3188 20.6522Z" />
<line class="line helspo" x1="52.9528" y1="130.502" x2="147.953" y2="121.502" stroke="black"/>
<line class="line wellb" x1="52.6369" y1="130.656" x2="105.637" y2="74.6563" stroke="black"/>
<line class="line iniad" x1="52.5078" y1="130.912" x2="67.5078" y2="46.9121" stroke="black"/>
<path class="text helspo" d="M2.47697 159V141.216H6.02897V148.248H12.749V141.216H16.277V159H12.749V151.32H6.02897V159H2.47697ZM20.641 159V141.216H31.537V144.192H24.193V148.296H30.409V151.272H24.193V156.024H31.801V159H20.641ZM35.4067 159V141.216H38.9587V156.024H46.1827V159H35.4067ZM53.7419 159.336C52.5579 159.336 51.3979 159.112 50.2619 158.664C49.1259 158.216 48.1259 157.576 47.2619 156.744L49.3019 154.296C49.9259 154.888 50.6379 155.368 51.4379 155.736C52.2539 156.088 53.0459 156.264 53.8139 156.264C54.7419 156.264 55.4459 156.08 55.9259 155.712C56.4059 155.344 56.6459 154.848 56.6459 154.224C56.6459 153.776 56.5259 153.424 56.2859 153.168C56.0619 152.896 55.7499 152.656 55.3499 152.448C54.9499 152.24 54.4859 152.032 53.9579 151.824L51.6059 150.792C51.0139 150.552 50.4379 150.232 49.8779 149.832C49.3339 149.416 48.8779 148.896 48.5099 148.272C48.1579 147.648 47.9819 146.904 47.9819 146.04C47.9819 145.064 48.2459 144.192 48.7739 143.424C49.3019 142.656 50.0299 142.048 50.9579 141.6C51.8859 141.136 52.9419 140.904 54.1259 140.904C55.1819 140.904 56.1979 141.104 57.1739 141.504C58.1499 141.904 58.9979 142.472 59.7179 143.208L57.9179 145.416C57.3579 144.952 56.7739 144.592 56.1659 144.336C55.5579 144.08 54.8779 143.952 54.1259 143.952C53.3579 143.952 52.7419 144.12 52.2779 144.456C51.8299 144.776 51.6059 145.232 51.6059 145.824C51.6059 146.24 51.7339 146.584 51.9899 146.856C52.2459 147.128 52.5819 147.368 52.9979 147.576C53.4139 147.768 53.8699 147.968 54.3659 148.176L56.6939 149.112C57.4139 149.4 58.0379 149.76 58.5659 150.192C59.1099 150.624 59.5259 151.144 59.8139 151.752C60.1179 152.36 60.2699 153.096 60.2699 153.96C60.2699 154.92 60.0059 155.808 59.4779 156.624C58.9659 157.44 58.2219 158.096 57.2459 158.592C56.2859 159.088 55.1179 159.336 53.7419 159.336ZM63.4145 159V141.216H69.2465C70.5585 141.216 71.7345 141.392 72.7745 141.744C73.8305 142.096 74.6625 142.68 75.2705 143.496C75.8945 144.296 76.2065 145.4 76.2065 146.808C76.2065 148.152 75.8945 149.264 75.2705 150.144C74.6625 151.008 73.8385 151.648 72.7985 152.064C71.7745 152.48 70.6225 152.688 69.3425 152.688H66.9665V159H63.4145ZM66.9665 149.88H69.1025C70.3185 149.88 71.2225 149.624 71.8145 149.112C72.4225 148.6 72.7265 147.832 72.7265 146.808C72.7265 145.784 72.4065 145.072 71.7665 144.672C71.1425 144.256 70.2145 144.048 68.9825 144.048H66.9665V149.88ZM86.4783 159.336C84.9103 159.336 83.5263 158.968 82.3263 158.232C81.1423 157.48 80.2143 156.408 79.5423 155.016C78.8703 153.624 78.5343 151.96 78.5343 150.024C78.5343 148.104 78.8703 146.464 79.5423 145.104C80.2143 143.744 81.1423 142.704 82.3263 141.984C83.5263 141.264 84.9103 140.904 86.4783 140.904C88.0623 140.904 89.4463 141.272 90.6303 142.008C91.8143 142.728 92.7423 143.768 93.4143 145.128C94.0863 146.472 94.4223 148.104 94.4223 150.024C94.4223 151.96 94.0863 153.624 93.4143 155.016C92.7423 156.408 91.8143 157.48 90.6303 158.232C89.4463 158.968 88.0623 159.336 86.4783 159.336ZM86.4783 156.264C87.3583 156.264 88.1183 156.008 88.7583 155.496C89.4143 154.984 89.9183 154.264 90.2703 153.336C90.6223 152.392 90.7983 151.288 90.7983 150.024C90.7983 148.76 90.6223 147.68 90.2703 146.784C89.9183 145.872 89.4143 145.176 88.7583 144.696C88.1183 144.2 87.3583 143.952 86.4783 143.952C85.5983 143.952 84.8303 144.2 84.1743 144.696C83.5343 145.176 83.0383 145.872 82.6863 146.784C82.3503 147.68 82.1823 148.76 82.1823 150.024C82.1823 151.288 82.3503 152.392 82.6863 153.336C83.0383 154.264 83.5343 154.984 84.1743 155.496C84.8303 156.008 85.5983 156.264 86.4783 156.264Z" fill="black"/>
<path class="text wellb" d="M11.9578 159L8.54975 141.216H12.1738L13.5418 149.904C13.7018 150.832 13.8458 151.768 13.9738 152.712C14.1178 153.656 14.2538 154.608 14.3818 155.568H14.4778C14.6698 154.608 14.8618 153.656 15.0538 152.712C15.2458 151.768 15.4298 150.832 15.6058 149.904L17.6458 141.216H20.6938L22.7578 149.904C22.9498 150.816 23.1338 151.752 23.3098 152.712C23.5018 153.656 23.6938 154.608 23.8858 155.568H24.0058C24.1338 154.608 24.2618 153.656 24.3898 152.712C24.5338 151.768 24.6698 150.832 24.7978 149.904L26.2138 141.216H29.5738L26.2858 159H21.8698L19.8778 150.192C19.7338 149.504 19.5978 148.824 19.4698 148.152C19.3418 147.464 19.2298 146.784 19.1338 146.112H19.0378C18.9098 146.784 18.7738 147.464 18.6298 148.152C18.5018 148.824 18.3738 149.504 18.2458 150.192L16.3018 159H11.9578ZM32.2387 159V141.216H43.1347V144.192H35.7907V148.296H42.0067V151.272H35.7907V156.024H43.3987V159H32.2387ZM47.0043 159V141.216H50.5563V156.024H57.7803V159H47.0043ZM60.8793 159V141.216H64.4313V156.024H71.6553V159H60.8793ZM74.7543 159V141.216H80.6343C81.8503 141.216 82.9383 141.352 83.8983 141.624C84.8743 141.896 85.6423 142.352 86.2023 142.992C86.7783 143.632 87.0663 144.504 87.0663 145.608C87.0663 146.152 86.9623 146.688 86.7543 147.216C86.5623 147.728 86.2903 148.184 85.9383 148.584C85.5863 148.984 85.1543 149.28 84.6423 149.472V149.568C85.6023 149.792 86.3943 150.256 87.0183 150.96C87.6423 151.648 87.9543 152.584 87.9543 153.768C87.9543 154.952 87.6503 155.936 87.0423 156.72C86.4503 157.488 85.6343 158.064 84.5943 158.448C83.5703 158.816 82.4023 159 81.0903 159H74.7543ZM78.3063 148.464H80.3943C81.5143 148.464 82.3303 148.256 82.8423 147.84C83.3543 147.408 83.6103 146.84 83.6103 146.136C83.6103 145.352 83.3463 144.792 82.8183 144.456C82.2903 144.12 81.4903 143.952 80.4183 143.952H78.3063V148.464ZM78.3063 156.264H80.7783C81.9943 156.264 82.9143 156.048 83.5383 155.616C84.1783 155.168 84.4983 154.48 84.4983 153.552C84.4983 152.688 84.1783 152.064 83.5383 151.68C82.9143 151.28 81.9943 151.08 80.7783 151.08H78.3063V156.264Z" fill="black"/>
<path class="text iniad" d="M17.5199 159V141.216H21.0719V159H17.5199ZM25.4418 159V141.216H29.0658L34.2258 150.696L36.0258 154.536H36.1458C36.0498 153.608 35.9458 152.592 35.8338 151.488C35.7218 150.384 35.6658 149.328 35.6658 148.32V141.216H39.0258V159H35.4018L30.2898 149.496L28.4898 145.68H28.3698C28.4498 146.64 28.5458 147.656 28.6578 148.728C28.7698 149.8 28.8258 150.848 28.8258 151.872V159H25.4418ZM43.4184 159V141.216H46.9704V159H43.4184ZM49.0602 159L54.7483 141.216H58.9483L64.6363 159H60.8923L58.3723 149.736C58.1003 148.808 57.8363 147.848 57.5803 146.856C57.3403 145.848 57.0843 144.872 56.8123 143.928H56.7163C56.4923 144.888 56.2443 145.864 55.9723 146.856C55.7163 147.848 55.4603 148.808 55.2043 149.736L52.6603 159H49.0602ZM52.5883 154.44V151.68H61.0363V154.44H52.5883ZM66.7153 159V141.216H71.5872C73.4113 141.216 74.9713 141.536 76.2673 142.176C77.5793 142.816 78.5873 143.784 79.2913 145.08C80.0113 146.376 80.3713 148.024 80.3713 150.024C80.3713 152.024 80.0193 153.688 79.3153 155.016C78.6113 156.344 77.6193 157.344 76.3393 158.016C75.0593 158.672 73.5393 159 71.7793 159H66.7153ZM70.2673 156.12H71.3473C72.4673 156.12 73.4273 155.92 74.2273 155.52C75.0433 155.104 75.6673 154.448 76.0993 153.552C76.5313 152.64 76.7473 151.464 76.7473 150.024C76.7473 148.584 76.5313 147.432 76.0993 146.568C75.6673 145.688 75.0433 145.056 74.2273 144.672C73.4273 144.272 72.4673 144.072 71.3473 144.072H70.2673V156.12Z" fill="black"/>
</svg>
