<svg xmlns="http://www.w3.org/2000/svg" data-name="レイヤー 2" viewBox="0 0 1440 829"><defs><mask id="b" width="38.5" height="73" x="914.5" y="329.99" maskUnits="userSpaceOnUse"><path d="M916.5 400.99c4.53 0 9.02-.89 13.2-2.63 4.18-1.73 7.99-4.28 11.19-7.48s5.74-7.01 7.48-11.19c1.73-4.19 2.63-8.67 2.63-13.2s-.89-9.02-2.63-13.2a34.4 34.4 0 0 0-7.48-11.19c-3.2-3.2-7.01-5.74-11.19-7.48a34.6 34.6 0 0 0-13.2-2.63v18.68c2.08 0 4.13.41 6.05 1.2 1.92.8 3.66 1.96 5.13 3.43a15.9 15.9 0 0 1 3.43 5.13c.79 1.92 1.2 3.98 1.2 6.05s-.41 4.13-1.2 6.05a15.9 15.9 0 0 1-3.43 5.13 15.9 15.9 0 0 1-5.13 3.43c-1.92.79-3.97 1.2-6.05 1.2v18.68Z" data-name="path-21-inside-1 331 2" style="fill:#fff"/></mask><mask id="c" width="73" height="69.64" x="734.5" y="606.38" maskUnits="userSpaceOnUse"><path d="M736.5 639.52c0 6.1 1.62 12.1 4.69 17.37s7.49 9.64 12.8 12.65 11.33 4.55 17.43 4.48 12.08-1.77 17.31-4.91c5.24-3.14 9.54-7.61 12.49-12.96a34.5 34.5 0 0 0-.86-34.73 34.5 34.5 0 0 0-13.11-12.32L771 639.53h-34.5Z" data-name="path-25-inside-2 331 2" style="fill:#fff"/></mask><clipPath id="a"><path d="M0 810V0h1440v829H0z" style="fill:none"/></clipPath></defs><g data-name="レイヤー 1"><path d="M0 0h1437.32v829H0z" style="fill:#fff"/><path d="M736.5 639.52c0 6.1 1.62 12.1 4.69 17.37s7.49 9.64 12.8 12.65 11.33 4.55 17.43 4.48 12.08-1.77 17.31-4.91c5.24-3.14 9.54-7.61 12.49-12.96a34.5 34.5 0 0 0-.86-34.73 34.5 34.5 0 0 0-13.11-12.32L771 639.53h-34.5Zm180-238.53c4.53 0 9.02-.89 13.2-2.63 4.18-1.73 7.99-4.28 11.19-7.48s5.74-7.01 7.48-11.19c1.73-4.19 2.63-8.67 2.63-13.2s-.89-9.02-2.63-13.2a34.4 34.4 0 0 0-7.48-11.19c-3.2-3.2-7.01-5.74-11.19-7.48a34.6 34.6 0 0 0-13.2-2.63v18.68c2.08 0 4.13.41 6.05 1.2 1.92.8 3.66 1.96 5.13 3.43a15.9 15.9 0 0 1 3.43 5.13c.79 1.92 1.2 3.98 1.2 6.05s-.41 4.13-1.2 6.05a15.9 15.9 0 0 1-3.43 5.13 15.9 15.9 0 0 1-5.13 3.43c-1.92.79-3.97 1.2-6.05 1.2v18.68Z" style="fill:#fff"/><g style="clip-path:url(#a)"><path d="M0 74.35h1440v756.17H0z" style="fill:#fff"/><path d="M917 367.49v272.5H772zm-.5-1L1113.65 0H916.5z" style="fill:#eff6f9"/><path d="M933.75 337.06a34.6 34.6 0 0 0-15.98-4.07l-.13 16.9c2.85.02 5.64.73 8.15 2.07l7.96-14.91Z" style="fill:#191c4f"/><path d="m0 643.52 771-3-101 190H0zm918-3.5h521v80H918z" style="fill:#eff6f9"/><path d="M917.5 605.33a34.45 34.45 0 0 0-24.3 10.32 34.6 34.6 0 0 0-7.38 11.26c-1.7 4.2-2.55 8.7-2.51 13.22l18.29-.16c-.02-2.13.38-4.24 1.18-6.21s1.97-3.77 3.47-5.29c1.49-1.52 3.27-2.73 5.23-3.56s4.06-1.27 6.19-1.29l-.16-18.29Z" style="fill:#fff0ca"/><path d="M917.5 605.33a34.45 34.45 0 0 0-24.3 10.32 34.6 34.6 0 0 0-7.38 11.26c-1.7 4.2-2.55 8.7-2.51 13.23l18.29-.16c-.02-2.13.38-4.24 1.18-6.21s1.97-3.77 3.47-5.29c1.49-1.52 3.27-2.73 5.23-3.56s4.06-1.27 6.19-1.29l-.16-18.29Z" style="fill:#fff0ca"/><path d="M917.5 605.33a34.45 34.45 0 0 0-24.3 10.32 34.6 34.6 0 0 0-7.38 11.26c-1.7 4.2-2.55 8.7-2.51 13.23l18.29-.16c-.02-2.13.38-4.24 1.18-6.21s1.97-3.77 3.47-5.29c1.49-1.52 3.27-2.73 5.23-3.56s4.06-1.27 6.19-1.29l-.16-18.29Z" style="fill:#fff0ca"/><path d="M917.5 605.33a34.45 34.45 0 0 0-24.3 10.32 34.6 34.6 0 0 0-7.38 11.26c-1.7 4.2-2.55 8.7-2.51 13.23l18.29-.16c-.02-2.13.38-4.24 1.18-6.21s1.97-3.77 3.47-5.29c1.49-1.52 3.27-2.73 5.23-3.56s4.06-1.27 6.19-1.29l-.16-18.29Z" style="fill:#fff0ca"/><path d="M917.5 605.33a34.45 34.45 0 0 0-24.3 10.32 34.6 34.6 0 0 0-7.38 11.26c-1.7 4.2-2.55 8.7-2.51 13.23l18.29-.16c-.02-2.13.38-4.24 1.18-6.21s1.97-3.77 3.47-5.29c1.49-1.52 3.27-2.73 5.23-3.56s4.06-1.27 6.19-1.29l-.16-18.29Z" style="fill:#fff0ca"/><path d="M917.5 605.33a34.45 34.45 0 0 0-24.3 10.32 34.6 34.6 0 0 0-7.38 11.26c-1.7 4.2-2.55 8.7-2.51 13.23l18.29-.16c-.02-2.13.38-4.24 1.18-6.21s1.97-3.77 3.47-5.29c1.49-1.52 3.27-2.73 5.23-3.56s4.06-1.27 6.19-1.29l-.16-18.29Zm-1 68.7a34.53 34.53 0 0 0 24.4-10.09 34.5 34.5 0 0 0 10.11-24.39h-18.29c0 2.12-.42 4.23-1.23 6.2-.82 1.97-2.01 3.75-3.52 5.26a16.1 16.1 0 0 1-5.26 3.51c-1.97.81-4.08 1.23-6.2 1.23v18.29Z" style="fill:#191c4f"/><path d="M917 0v719.5m0-353.51h555" style="fill:none;stroke:#191c4f;stroke-width:2px"/><g style="mask:url(#b)"><path d="M916.5 400.99c4.53 0 9.02-.89 13.2-2.63 4.18-1.73 7.99-4.28 11.19-7.48s5.74-7.01 7.48-11.19c1.73-4.19 2.63-8.67 2.63-13.2s-.89-9.02-2.63-13.2a34.4 34.4 0 0 0-7.48-11.19c-3.2-3.2-7.01-5.74-11.19-7.48a34.6 34.6 0 0 0-13.2-2.63v18.68c2.08 0 4.13.41 6.05 1.2 1.92.8 3.66 1.96 5.13 3.43a15.9 15.9 0 0 1 3.43 5.13c.79 1.92 1.2 3.98 1.2 6.05s-.41 4.13-1.2 6.05a15.9 15.9 0 0 1-3.43 5.13 15.9 15.9 0 0 1-5.13 3.43c-1.92.79-3.97 1.2-6.05 1.2v18.68Z" style="fill:none;stroke:#191c4f;stroke-width:4px"/></g><circle cx="917.5" cy="639.52" r="33.5" style="fill:none;stroke:#191c4f;stroke-width:2px"/><circle cx="917.5" cy="639.52" r="15.5" style="fill:none;stroke:#191c4f;stroke-width:2px"/><path d="M669 831 1112.3 0" style="fill:none;stroke:#191c4f;stroke-width:2px"/><g style="mask:url(#c)"><path d="M736.5 639.52c0 6.1 1.62 12.1 4.69 17.37s7.49 9.64 12.8 12.65 11.33 4.55 17.43 4.48 12.08-1.77 17.31-4.91c5.24-3.14 9.54-7.61 12.49-12.96a34.5 34.5 0 0 0-.86-34.73 34.5 34.5 0 0 0-13.11-12.32L771 639.53h-34.5Z" style="fill:none;stroke:#191c4f;stroke-width:4px"/></g><circle cx="772" cy="640.02" r="18" style="fill:none;stroke:#191c4f;stroke-width:2px"/><path d="M791 640.02a19.03 19.03 0 0 1-9.4 16.4 19.05 19.05 0 0 1-9.42 2.61c-3.32.03-6.58-.8-9.47-2.42l9.29-16.58h19Zm-38 .03c0-3.32.86-6.57 2.5-9.45s4.01-5.28 6.87-6.96 6.1-2.58 9.42-2.62 6.58.79 9.48 2.41l-9.26 16.59-19 .03Z" style="fill:#191c4f"/><path d="m0 642.83 1440-4.81" style="fill:none;stroke:#191c4f;stroke-width:2px"/><path d="M202.11 442.05h.46v6.92h-.46c-12.74 0-24.63 5.08-33.48 14.28-8.84 9.2-13.43 21.29-12.92 34.04.93 23.21 19.54 42.5 42.6 44.38l1.1.08c.91.05 1.82.08 2.72.08 24.07 0 44.21-18.55 46.26-42.42l.05-.54h-29.69l-.09.39c-1.77 7.64-8.61 13.12-16.53 13.12-4.69 0-9.06-1.87-12.3-5.27-3.23-3.4-4.89-7.85-4.66-12.55.43-8.7 7.57-15.78 16.28-16.11h.02c.21-.02.43-.02.66-.02 7.91 0 14.76 5.48 16.53 13.12l.09.39h109l.14-.25 16.16-27.99h8l-15.88 27.49-.43.75h38.06c1.21 0 2.29.62 2.89 1.67s.6 2.29 0 3.34l-24.57 42.54h-8l23.03-39.87.43-.75h-35.85l-.14.25-23.32 40.37h-8l23.04-39.88.43-.75h-68.37l-.03.46c-2.03 27.77-25.26 49.42-53.22 49.42-1 0-2.01-.03-3.01-.08-26.63-1.47-48.21-22.6-50.21-49.16-1.13-15.02 3.87-29.34 14.09-40.35 9.92-10.69 23.9-16.9 38.43-17.09h.69Zm600.75-101.4c.28-.75 1.35-.76 1.64 0l1.2 3.23c1.2 3.24 3.76 5.8 7 6.99l3.24 1.2c.75.28.76 1.35 0 1.64l-3.24 1.2c-3.24 1.2-5.8 3.76-7 6.99l-1.2 3.24c-.26.71-1.22.76-1.58.13l-.06-.13-1.2-3.23c-1.2-3.24-3.76-5.8-7-6.99l-3.24-1.2c-.75-.28-.76-1.35 0-1.64s3.24-1.2 3.24-1.2c3.24-1.2 5.8-3.76 7-6.99zm-62.23 221.87c5.49 0 9.93 4.45 9.93 9.93s-4.45 9.93-9.93 9.93-9.93-4.45-9.93-9.93 4.45-9.93 9.93-9.93m-344-392.63-33.86 58.03-.44.76h.88c20.48-.09 35.79-.15 45.76-.18l8.18-.02c2.06 0 3.9 1.24 4.71 3.17v.02l.04.09c.52 1.32.43 2.85-.27 4.25l-.15.28-1.22 2.15c-6.4 11.24-24.25 42.6-31.07 54.59h-7.97c4.17-7.33 24.62-43.25 32.35-56.84l.43-.75h-.86c-10.31 0-28.65.08-54.56.19v.5l-.43-.25-33.34 57.14h-8.01l33.03-56.6.44-.76h-.88c-12.69.06-26.59.13-37.31.19-5.36.03-9.94.05-13.17.07-1.62 0-2.9.01-3.77.02h-.52l4.01-6.94c9.72-.05 32.54-.17 55.4-.27h.29l.14-.25 34.18-58.58h8.01Zm294.46 253.85h79.03c6.59 0 12.87 3.23 16.35 8.8 3.73 5.98 3.84 13.24.34 19.3l-38.3 66.3a3.733 3.733 0 0 1-5.08 1.36l-.33-.19c-1.53-1.1-2-3.2-1.04-4.86l38.3-66.31c2.26-3.9 2.03-8.64-.68-12.37-2.17-2.98-5.73-4.6-9.38-4.6h-79.22c-2.05 0-3.71-1.66-3.71-3.71s1.66-3.71 3.71-3.71ZM403.92 453.5c1.2 2.78 3.55 4.91 6.44 5.82s3.16 1 3.16 1l-3.16 1.01c-2.89.92-5.23 3.04-6.43 5.82s-1.07 2.49-1.07 2.49l-1.07-2.49c-1.2-2.78-3.55-4.91-6.44-5.82l-3.16-1.01 3.17-1.01c2.89-.92 5.23-3.04 6.43-5.82s1.07-2.49 1.07-2.49l1.07 2.49Zm27.42 0c1.2 2.78 3.55 4.91 6.44 5.82s3.16 1 3.16 1l-3.16 1.01c-2.88.92-5.23 3.04-6.43 5.82s-1.07 2.49-1.07 2.49l-1.08-2.49c-1.2-2.78-3.55-4.91-6.44-5.82l-3.16-1.01 3.17-1.01c2.88-.92 5.23-3.04 6.43-5.82s1.08-2.49 1.08-2.49l1.07 2.49Zm-50.18 23.24h17.46c2.33 0 3.84 2.45 2.79 4.52l-14.23 28.22a2.855 2.855 0 0 1-3.85 1.27l-.07-.04a2.87 2.87 0 0 1-1.21-3.82s11.95-23.7 11.95-23.7l.37-.73h-13.21c-1.59 0-2.87-1.28-2.87-2.87s1.29-2.87 2.87-2.87Zm65.47-280.6c1.2 2.78 3.55 4.91 6.44 5.82s3.16 1 3.16 1l-3.16 1.01c-2.88.92-5.23 3.04-6.43 5.82s-1.08 2.49-1.08 2.49l-1.07-2.49c-1.2-2.78-3.55-4.91-6.43-5.82l-3.17-1.01 3.17-1.01c2.88-.92 5.23-3.04 6.43-5.82s1.07-2.49 1.07-2.49l1.08 2.49Zm27.72 0c1.2 2.78 3.55 4.91 6.44 5.82s3.16 1 3.16 1l-3.16 1.01c-2.89.92-5.23 3.04-6.43 5.82s-1.08 2.49-1.08 2.49l-1.07-2.49c-1.2-2.78-3.55-4.91-6.43-5.82l-3.16-1.01 3.16-1.01c2.89-.92 5.23-3.04 6.43-5.82s1.07-2.49 1.07-2.49l1.08 2.49Zm-45.13 19.54h17.46c2.33 0 3.84 2.45 2.79 4.52l-14.23 28.22c-.71 1.41-2.44 1.99-3.85 1.27l-.07-.04a2.86 2.86 0 0 1-1.21-3.81s11.95-23.7 11.95-23.7l.37-.73h-13.21a2.87 2.87 0 0 1 0-5.74ZM171.67 76.5c.44 0 .89.05 1.33.14 1.31.28 2.54 1.15 3.46 2.33.91 1.18 1.47 2.65 1.47 4.09v145.95h42.76c1.81 0 3.49.78 4.49 2.04 1.43 1.82 1.62 4.16.5 6.15s-73.3 129.2-73.3 129.2h-7.97l73.61-129.72.42-.75h-41.89c-3.05 0-5.54-2.48-5.54-5.53V85.36l-.93 1.62L8.93 366.36l-8.06.03L166.32 79.62c1.13-1.96 3.13-3.12 5.35-3.12M268.59 294l.11.06 5.65 3.21-.18.36-14.74 25.94-.43.75h.87l30.45-.23.03.4.05 6.27-.13.14-.1.1H290l-34.65.26h-.29l-.14.25-19.7 34.66h-.26l-.2.01-.15-.23-23.18-40.89.11-.21c.07-.12.2-.2.33-.2l38.85-.29h.29l.14-.25 17.11-30.1h.24zm-22.41 37.32-22.31.17h-.85l.42.75 11.09 19.57.14.25h.59l.14-.25 11.21-19.74.43-.75h-.87Z" style="fill:#191c4f"/><path d="M512.92 181.7c1.71 0 2.92.39 3.78.91s1.39 1.2 1.72 1.82c1.04 1.95.47 4.18-.47 5.65s0 .02 0 .02l-1.42 2.49c-6.04 10.55-28.89 50.48-37.97 66.31l-.43.74h.86c7.79.04 21.91.15 35.61.26h.42l22.67.18c6.82.05 12.46.08 15.62.09 1.27 0 2.38.36 3.23 1.01 1.95 1.5 2.51 4.23 1.3 6.36s-55.37 97.91-55.37 97.91c-.09.16-.26.27-.46.27h-.08a.5.5 0 0 1-.33-.2l-.04-.06-2.58-4.46-20.29-35.79a.57.57 0 0 1 0-.54c.1-.16.27-.26.46-.26h38.58l.14-.25 31.87-56.35.42-.74h-.85c-8.01-.04-22.19-.15-34.76-.25h-.28c-12.02-.1-24.34-.19-32.35-.23l-6.41-.03h-.28c-.68-.04-1.6-.2-2.5-.57-1.02-.42-1.99-1.1-2.6-2.14-.75-1.29-.75-2.85 0-4.17 6.32-11.02 33.34-58.22 40.26-70.31l.43-.75h-.87l-80 .51-.04-6.92h.37q41.31-.255 61.98-.39c6.89-.04 12.06-.08 15.5-.1 1.72-.01 3.02-.02 3.88-.02h1.29Zm-22.4 150.4 11 19.41.14.25h.59l.14-.25 10.97-19.41.42-.75h-23.7l.42.75Zm-292.41 42.2h3.58c.46 0 .83.37.83.83v19.96h.49c26.39.24 51.1 10.54 69.82 29.12h-.02l.84.85.65.65c.66.67.65 1.75-.02 2.4s-7.24 7.12-7.24 7.12c-.67.66-1.75.65-2.4-.02s-.65-.66-.65-.66c-17.22-17.5-40.5-26.77-65.19-25.87-45.03 1.65-81.58 38.08-83.42 83.09-2.02 49.48 37.66 90.37 86.73 90.37h1.27c.88 0 1.61.66 1.7 1.51v.17l.09 10.16c0 .94-.75 1.71-1.69 1.71h-1.36c-55.34 0-100.36-46.78-100.36-100.31s42.17-97.39 95.04-100.17l.47-.02v-20.08c0-.46.37-.83.83-.83ZM461.46 438c.33 0 .65.01.96.05 2.72.29 5.11 1.89 6.44 4.33l.12.24a8.67 8.67 0 0 1-.29 8.38c-5.39 9.06-16.75 28.12-23.76 40.15l-.44.75h.86c7.64.04 21.45.14 34.84.26h1.46l22.75.17c6.82.05 12.43.08 15.48.08 1.78 0 3.37.92 4.26 2.45l.17.28c.72 1.45.68 3.2-.13 4.64l-46.7 82.58-3.04-5.25-20.74-36.58h39.48l.14-.25 22.74-40.21.42-.74h-.85c-7.87-.04-21.49-.15-34.7-.25-16.18-.13-32.86-.26-39.1-.26-.71 0-1.75-.15-2.78-.57-1.02-.42-1.99-1.1-2.59-2.14a4.13 4.13 0 0 1-.13-3.92l.13-.25c5.81-10.12 19.82-33.65 26.28-44.48.32-.54.33-1.19.05-1.73-.22-.44-.58-.73-1.07-.79-.1-.01-.2-.01-.27-.01h-66.82v-6.92h66.82Zm4.56 110.2 11.01 19.41.43.77.44-.77 10.97-19.41.42-.75h-23.7l.42.75Zm184.65-155.52-37.29 64.55-.22.39.36.27c9.47 6.92 15.1 17.94 15.1 29.64 0 20.24-16.48 36.72-36.74 36.72-5.17 0-10.17-1.06-14.88-3.15l-.41-.18-.23.39-13.43 23.25-.43.75h29.72v6.92H558.5l-.14.25-17.28 29.91h-7.99l37.29-64.55.22-.39-.36-.27c-9.47-6.92-15.1-17.94-15.1-29.64 0-20.24 16.48-36.72 36.73-36.72 5.17 0 10.17 1.06 14.88 3.15l.41.18.23-.39 12.82-22.2.43-.75h-29.11v-6.92h33.1l.14-.25 17.88-30.96h8Zm-41.28 71.45-29.03 50.25-.07.11v.48l.31.13c3.59 1.47 7.38 2.22 11.27 2.22 16.44 0 29.81-13.37 29.81-29.8 0-9.18-4.3-17.9-11.56-23.54l-.45-.35-.29.5Zm-17.51-6.4c-16.44 0-29.81 13.36-29.81 29.8 0 9.18 4.3 17.9 11.56 23.54l.45.35.29-.5 29.03-50.25.29-.49-.53-.22a29.5 29.5 0 0 0-10.77-2.21s-.5-.01-.5-.01Zm88.43-6.92h62.41a3.461 3.461 0 0 1 0 6.92h-62.41a3.461 3.461 0 0 1 0-6.92m-19.78 32.24h71.5c.38 0 .75.04 1.12.12a5.56 5.56 0 0 1 3.95 3.16 5.58 5.58 0 0 1-.26 5.06s-20.88 38.25-20.88 38.25l-.4.74h10.38l-3.99 6.91h-10.16l-.14.26-24.47 44.82h-7.88l24.17-44.34.4-.74H682l-.15.25-12.91 22.35c-.43.75-1.25 1.22-2.11 1.22-.43 0-.84-.11-1.21-.33s-1.77-1.02-1.77-1.02a2.44 2.44 0 0 1-.9-3.33s10.62-18.39 10.62-18.39l.43-.75h-13.64l-.14.25-12.09 20.92c-.43.75-1.25 1.22-2.11 1.22-.43 0-.85-.11-1.21-.33s-1.77-1.02-1.77-1.02l-.21-.14c-1-.72-1.31-2.1-.68-3.19l9.8-16.96.43-.75h-18.36l-.14.26-24.48 44.81h-7.88l52.41-95.9a5.55 5.55 0 0 1 2.96-2.46l1.77-.63c.61-.21 1.23-.32 1.87-.32m.53 6.92c-.2 0-.4.03-.59.11l-.18.07a1.8 1.8 0 0 0-.93.77s-21.14 38.73-21.14 38.73l-.4.74h19.5l-.59-.59 22.57-39.08.43-.75h-18.66Zm26.52.26-22.76 39.41-.43.75h13.64l.14-.25 22.77-39.41.43-.75h-13.64l-.14.25Zm21.63 0-22.77 39.41-.43.75h21.64l.14-.26 21.49-39.41.4-.74h-20.34l-.15.25Zm-25.59-335.75c1.96-.15 3.65 1.4 3.71 3.38a3.5 3.5 0 0 1-3.24 3.58c-40.83 3.1-72.27 36.7-72.27 78.12 0 25.97 12.56 49.78 33.79 64.44 1.53 1.07 1.99 3.11 1.04 4.69s-.03.05-.03.05c-1.05 1.68-3.3 2.17-4.92 1.05-23.17-15.97-36.87-41.92-36.87-70.23 0-22.36 8.6-43.5 24.2-59.52 14.39-14.77 33.27-23.7 53.63-25.48l.97-.08Zm7.46 207.75c0-1.88 1.48-3.42 3.36-3.49 63.8-2.25 115.07-54.93 115.07-119.19 0-40.08-19.91-77.16-53.29-99.35l-.44-.29-.27.46-17.82 30.27-.23.4.38.26a83.33 83.33 0 0 1 35.51 64.08c.1 1.97-1.5 3.63-3.49 3.63-1.87 0-3.39-1.47-3.49-3.35-1.22-23.95-13.62-45.95-33.69-59.43-.74-.5-1.37-1.17-1.81-1.95a5.84 5.84 0 0 1 .04-5.87l19.35-32.88c1.11-2.02 2.1-2.87 2.89-3.24.59-.28 1.1-.31 1.58-.31h.47c.88 0 1.79.42 2.57.92 36.76 23.33 58.71 63.2 58.71 106.67 0 68.02-54.27 123.89-121.81 126.17-1.97.07-3.6-1.52-3.6-3.48Zm-70.16-228.24a3.5 3.5 0 0 1 4.9 1.1c.98 1.61.51 3.7-1.06 4.73-26.54 17.42-44.98 44.5-51.39 75.39l-.3 1.47a3.484 3.484 0 0 1-3.97 2.78c-1.95-.31-3.26-2.18-2.88-4.11l.23-1.17c6.71-32.86 26.27-61.68 54.47-80.18Z" style="fill:#191c4f"/><path d="M690.19 176.73c34.72 0 62.86 28.13 62.86 62.83s-28.15 62.83-62.86 62.83-62.86-28.13-62.86-62.83 28.15-62.83 62.86-62.83m49.38 37.19-5.61 2.85-.45.23.23.45c5.05 9.91 6.52 20.96 4.26 32.55-3.27 16.81-15.44 30.72-31.77 35.86-11.2 3.52-22.47 3.32-32.72-.4l-.47-.17-.17.47-2.15 5.91-.17.47.47.17a56.1 56.1 0 0 0 17.98 3.34l-.02.02h1.2c30.95 0 56.13-25.17 56.13-56.11 0-8.95-2.04-17.51-6.08-25.43l-.23-.45-.44.23Zm-48.73-7.72c-.22-.63-1.21-.59-1.32.14-2.63 16.76-15.79 29.91-32.56 32.54-.77.12-.77 1.24 0 1.36 16.77 2.63 29.93 15.78 32.56 32.54.12.77 1.23.77 1.36 0 2.63-16.76 15.79-29.91 32.55-32.54.77-.12.77-1.23 0-1.36-16.77-2.63-29.92-15.78-32.55-32.54s-.03-.14-.03-.14Z" style="fill:#191c4f"/></g><path d="M1044.87 232.24h8.6l-13 22.9h-8.6zm31.2-19.1h36.3v7.6h-25.8v46.4h-7.8v-46.4h-13.2l-8.4 46.5h-7.8l8.4-46.5h-25.7v-7.6h36.2v-12.8h-27.2v-7.6h27.2v-11.5h7.8v11.5h27.2v7.6h-27.2zm13.5 19.1h8.8l13.7 23.7h-8.8zm40.4 16.81 29.7-25.8v10l-29.7 25.7zm1.4-65.91h37.1v84.1h-7.8v-76.5h-29.3zm21.9 26.5v8.9l-20.8-12.3v-8.9zm58.7-26.5v84.1h-7.7v-76.5h-30.9v-7.6zm-18.3 35-19.5-11.6v-8.9l19.5 11.6zm-19.2 27.71 28.8-25v10l-28.8 24.9zm120.4-50.01 17.1 29.7h-8.8l-2.4-4.2h-67.5v-7.5h11.2l18.5-32.1h9l-18.5 32.1h42.9l-10.4-18zm-52.1 70.31v-37.8h59v37.8zm7.8-30.31v22.8h43.4v-22.8zm147.7-26.3 16.2 22.2v12.1l-7.1-9.8v4.2h-31.4v29h-7.6v-29h-31.3v-4.1l-7.1 8.1v-10.6l12.5-14.3-5.4-7.5 4.5-5.1 5.4 7.4 3.8-4.3-5.4-7.4 4.6-5.1 5.3 7.4 8.7-10h-14.3l-17.7 20v-9.8l18.8-21.2h8.7l-4.2 4.8h16.9v7.4l-18.9 21.6h39.2v7.2h-40.5v-5.7l-12.1 13.8h65.2l-34.8-47.8h8.8l5.7 7.8v-4.9h28.5zm-64.3 55.31 18.1-21.2h9.9l-18.1 21.2zm48.9-21.2h10.1l18.1 21.2h-10zm16.9-50.51h-13.3l7.1 9.8zm-69.47 140.01v6.15h-23.25c0-17.92 17.02-27.15 17.02-40.65 0-2.7-1.8-5.55-4.72-5.55-3.6 0-4.72 3.6-4.72 6.67v4.65h-3.53l-2.62-4.88c.08-5.92 3.08-12.6 10.88-12.6 6.3 0 10.88 5.25 10.88 11.7 0 13.65-12.75 22.12-16.2 34.5h16.27Zm27.52-5.7c0 7.27-4.27 12.6-10.87 12.6s-10.95-5.55-10.95-12.6v-27.9c0-7.27 4.42-12.6 10.95-12.6s10.87 5.48 10.87 12.6zm-6-27.9c0-4.12-1.8-6.6-4.87-6.6s-4.95 2.47-4.95 6.6v27.9c0 4.12 1.88 6.6 4.95 6.6s4.87-2.48 4.87-6.6zm34.2 33.6v6.15h-23.25c0-17.92 17.02-27.15 17.02-40.65 0-2.7-1.8-5.55-4.72-5.55-3.6 0-4.72 3.6-4.72 6.67v4.65h-3.53l-2.62-4.88c.08-5.92 3.08-12.6 10.88-12.6 6.3 0 10.88 5.25 10.88 11.7 0 13.65-12.75 22.12-16.2 34.5h16.27Zm27.45-14.85v8.92c0 8.1-4.65 12.82-10.87 12.82-7.72 0-10.88-5.48-10.88-12.97v-2.55h6v2.55c0 3.9 1.35 7.05 4.88 7.05 2.77 0 4.72-2.77 4.72-7.05v-8.4c0-3.22-1.28-6.45-4.72-6.45-1.95 0-3.9 1.27-4.5 4.58h-6.38v-29.1h21l-3.22 6h-11.77v15.9c1.5-1.87 3.6-3.15 6.22-3.15 6.6 0 9.52 5.62 9.52 11.85M982.58 549.66h-5.33v-39.52h-1.95l-2.79-5.2h10.08v44.72Zm14.23 0h-5.33v-39.52h-1.95l-2.79-5.2h10.08v44.72Zm3.38 3.83 14.24-52.39h3.64l-14.24 52.39zm39.26-14.1c0 6.3-3.71 10.92-9.43 10.92s-9.49-4.81-9.49-10.92v-24.18c0-6.31 3.84-10.92 9.49-10.92s9.43 4.75 9.43 10.92zm-5.2-24.18c0-3.58-1.56-5.72-4.23-5.72s-4.29 2.15-4.29 5.72v24.18c0 3.58 1.62 5.72 4.29 5.72s4.23-2.14 4.23-5.72zm29.64 29.12v5.33h-20.15c0-15.54 14.75-23.53 14.75-35.23 0-2.34-1.56-4.81-4.09-4.81-3.12 0-4.09 3.12-4.09 5.79v4.03h-3.06l-2.28-4.22c.07-5.14 2.67-10.92 9.43-10.92 5.46 0 9.43 4.55 9.43 10.14 0 11.83-11.05 19.18-14.04 29.9h14.11Zm18.85 11.11c-5.4-8-8.84-18.59-8.84-28.15s3.45-20.15 8.84-28.15l2.54 4.75c-4.1 6.96-6.7 15.54-6.7 23.4s2.6 16.45 6.7 23.4zm58.7-1.95h-31.07V501.1h31.07zm-5.59-46.86h-19.89v15.73h19.89zm-19.89 41.34h19.89v-20.09h-19.89zm50.43 2.73c4.1-6.96 6.7-15.54 6.7-23.4s-2.6-16.45-6.7-23.4l2.54-4.75c5.4 8 8.84 18.59 8.84 28.15s-3.45 20.15-8.84 28.15zm22.69-17.42 2.73-5.07H1213l-2.73 5.07zm38.54 16.38h-5.33v-39.52h-1.95l-2.79-5.2h10.08v44.72Zm14.24 0h-5.33v-39.52h-1.95l-2.79-5.2h10.08v44.72Zm3.38 3.83 14.24-52.39h3.64l-14.24 52.39zm39.26-14.1c0 6.3-3.71 10.92-9.42 10.92s-9.49-4.81-9.49-10.92v-24.18c0-6.31 3.84-10.92 9.49-10.92s9.42 4.75 9.42 10.92zm-5.2-24.18c0-3.58-1.56-5.72-4.22-5.72s-4.29 2.15-4.29 5.72v24.18c0 3.58 1.62 5.72 4.29 5.72s4.22-2.14 4.22-5.72zm28.99 3.18c0 4.1-2.15 6.44-5.14 7.67 3.25 1.04 5.14 3.31 5.14 7.74v6.56c0 4.36-3.25 9.95-9.3 9.95-7.28 0-9.56-5.66-9.56-11.63v-3.97h5.2v4.49c0 3.19 1.37 5.79 4.1 5.79 2.27 0 4.22-1.82 4.22-4.81v-5.72c0-1.69-.39-5.59-4.09-5.59h-3.51v-5.33h3.64c2.6 0 3.96-2.28 3.96-5.66v-3.45c0-2.99-1.95-4.81-4.22-4.81-2.73 0-4.1 2.47-4.1 5.79v4.03h-2.92l-2.28-4.22c.07-5.53 2.93-10.92 9.3-10.92 7.15 0 9.56 6.24 9.56 10.14v3.96Zm18.85 37.05c-5.4-8-8.84-18.59-8.84-28.15s3.45-20.15 8.84-28.15l2.54 4.75c-4.1 6.96-6.7 15.54-6.7 23.4s2.6 16.45 6.7 23.4zm56.87-1.95h-9.75l-2.86-5.33h7.22v-16.51h-16.71v21.84h-7.67l-2.86-5.33h5.13V501.1h27.5zm-5.39-47.06h-16.71v7.28h16.71zm-16.71 19.89h16.71v-7.28h-16.71zm48.88 24.38c4.09-6.96 6.69-15.54 6.69-23.4s-2.6-16.45-6.69-23.4l2.53-4.75c5.4 8 8.84 18.59 8.84 28.15s-3.45 20.15-8.84 28.15zm-200.78 64.55h-4.92v-36.48h-1.8l-2.58-4.8h9.3zm22.86-9.48c0 5.82-3.42 10.08-8.7 10.08s-8.76-4.44-8.76-10.08v-22.32c0-5.82 3.54-10.08 8.76-10.08s8.7 4.38 8.7 10.08zm-4.8-22.32c0-3.3-1.44-5.28-3.9-5.28s-3.96 1.98-3.96 5.28v22.32c0 3.3 1.5 5.28 3.96 5.28s3.9-1.98 3.9-5.28zm12.24 8.94v-8.4h4.92v8.4zm0 18v-8.4h4.92v8.4zm29.82-4.62c0 5.82-3.42 10.08-8.7 10.08s-8.76-4.44-8.76-10.08v-22.32c0-5.82 3.54-10.08 8.76-10.08s8.7 4.38 8.7 10.08zm-4.8-22.32c0-3.3-1.44-5.28-3.9-5.28s-3.96 1.98-3.96 5.28v22.32c0 3.3 1.5 5.28 3.96 5.28s3.9-1.98 3.9-5.28zm26.82 22.32c0 5.82-3.42 10.08-8.7 10.08s-8.76-4.44-8.76-10.08v-22.32c0-5.82 3.54-10.08 8.76-10.08s8.7 4.38 8.7 10.08zm-4.8-22.32c0-3.3-1.44-5.28-3.9-5.28s-3.96 1.98-3.96 5.28v22.32c0 3.3 1.5 5.28 3.96 5.28s3.9-1.98 3.9-5.28zm10.56 16.68 2.52-4.68h19.56l-2.52 4.68zm35.58 15.12h-4.92v-36.48h-1.8l-2.58-4.8h9.3zm22.8-12.42v2.76c0 6.84-4.2 10.26-8.7 10.26-5.58 0-8.7-4.62-8.7-10.26v-2.76c0-3.96 1.56-6.72 3.9-8.28-1.98-1.86-3.3-4.8-3.3-8.16v-2.76c0-2.88.72-5.4 2.1-7.2 1.5-1.92 3.6-2.94 6-2.94s4.5 1.02 6 2.94c1.38 1.8 2.16 4.32 2.16 7.2v2.76c0 3.42-1.38 6.36-3.36 8.16 2.52 1.68 3.9 4.8 3.9 8.28m-4.92 0c0-3.3-.84-6.24-3.78-6.24-3.24 0-3.78 3.3-3.78 6.24v2.94c0 3.72 1.8 5.28 3.78 5.28 2.58 0 3.78-2.34 3.78-5.28zm-7.08-16.44c0 2.58.84 5.58 3.3 5.58 1.62 0 3.36-1.62 3.36-5.58v-2.76c0-2.58-.9-5.34-3.36-5.34-1.62 0-3.3 1.38-3.3 5.34zm19.44 6v-8.4h4.92v8.4zm0 18v-8.4h4.92v8.4zm29.82-4.62c0 5.82-3.42 10.08-8.7 10.08s-8.76-4.44-8.76-10.08v-22.32c0-5.82 3.54-10.08 8.76-10.08s8.7 4.38 8.7 10.08zm-4.8-22.32c0-3.3-1.44-5.28-3.9-5.28s-3.96 1.98-3.96 5.28v22.32c0 3.3 1.5 5.28 3.96 5.28s3.9-1.98 3.9-5.28zm26.82 22.32c0 5.82-3.42 10.08-8.7 10.08s-8.76-4.44-8.76-10.08v-22.32c0-5.82 3.54-10.08 8.76-10.08s8.7 4.38 8.7 10.08zm-4.8-22.32c0-3.3-1.44-5.28-3.9-5.28s-3.96 1.98-3.96 5.28v22.32c0 3.3 1.5 5.28 3.96 5.28s3.9-1.98 3.9-5.28z"/></g></svg>