<?xml version="1.0" encoding="UTF-8"?>
<svg xmlns="http://www.w3.org/2000/svg" xmlns:xlink="http://www.w3.org/1999/xlink" viewBox="0 0 1440.01 850.47">
  <defs>
    <style>
      .cls-1 {
        fill: #fff0ca;
      }

      .cls-2 {
        mask: url(#mask-1);
      }

      .cls-3 {
        fill: #eff6f9;
      }

      .cls-4 {
        stroke-width: 4px;
      }

      .cls-4, .cls-5 {
        fill: none;
        stroke: #191c4f;
      }

      .cls-6 {
        fill: #fff;
      }

      .cls-7 {
        mask: url(#mask);
      }

      .cls-8 {
        stroke: #000;
      }

      .cls-8, .cls-9 {
        fill: #191c4f;
      }

      .cls-5 {
        stroke-width: 2px;
      }
    </style>
    <mask id="mask" x="914.5" y="330.46" width="38.5" height="73" maskUnits="userSpaceOnUse">
      <g id="path-21-inside-1_331_2">
        <path class="cls-6" d="M916.5,401.46c4.53,0,9.02-.89,13.2-2.63,4.18-1.73,7.99-4.28,11.19-7.48,3.2-3.2,5.74-7.01,7.48-11.19,1.73-4.19,2.63-8.67,2.63-13.2s-.89-9.02-2.63-13.2c-1.73-4.19-4.28-7.99-7.48-11.19-3.2-3.2-7.01-5.74-11.19-7.48-4.19-1.73-8.67-2.63-13.2-2.63v18.68c2.08,0,4.13.41,6.05,1.2,1.92.8,3.66,1.96,5.13,3.43,1.47,1.47,2.63,3.21,3.43,5.13.79,1.92,1.2,3.98,1.2,6.05s-.41,4.13-1.2,6.05c-.8,1.92-1.96,3.66-3.43,5.13-1.47,1.47-3.21,2.63-5.13,3.43-1.92.79-3.97,1.2-6.05,1.2v18.68Z"/>
      </g>
    </mask>
    <mask id="mask-1" x="734.5" y="606.85" width="73" height="69.64" maskUnits="userSpaceOnUse">
      <g id="path-25-inside-2_331_2">
        <path class="cls-6" d="M736.5,639.99c0,6.1,1.62,12.1,4.69,17.37,3.07,5.27,7.49,9.64,12.8,12.65,5.31,3.01,11.33,4.55,17.43,4.48s12.08-1.77,17.31-4.91c5.24-3.14,9.54-7.61,12.49-12.96,2.94-5.35,4.41-11.38,4.26-17.48-.15-6.1-1.92-12.06-5.12-17.25-3.21-5.2-7.73-9.45-13.11-12.32l-16.25,30.43h-34.5Z"/>
      </g>
    </mask>
  </defs>
  <path class="cls-6" d="M736.5,639.99c0,6.1,1.62,12.1,4.69,17.37,3.07,5.27,7.49,9.64,12.8,12.65,5.31,3.01,11.33,4.55,17.43,4.48s12.08-1.77,17.31-4.91c5.24-3.14,9.54-7.61,12.49-12.96,2.94-5.35,4.41-11.38,4.26-17.48-.15-6.1-1.92-12.06-5.12-17.25-3.21-5.2-7.73-9.45-13.11-12.32l-16.25,30.43h-34.5Z"/>
  <path class="cls-6" d="M916.5,401.46c4.53,0,9.02-.89,13.2-2.63,4.18-1.73,7.99-4.28,11.19-7.48,3.2-3.2,5.74-7.01,7.48-11.19,1.73-4.19,2.63-8.67,2.63-13.2s-.89-9.02-2.63-13.2c-1.73-4.19-4.28-7.99-7.48-11.19-3.2-3.2-7.01-5.74-11.19-7.48-4.19-1.73-8.67-2.63-13.2-2.63v18.68c2.08,0,4.13.41,6.05,1.2,1.92.8,3.66,1.96,5.13,3.43,1.47,1.47,2.63,3.21,3.43,5.13.79,1.92,1.2,3.98,1.2,6.05s-.41,4.13-1.2,6.05c-.8,1.92-1.96,3.66-3.43,5.13-1.47,1.47-3.21,2.63-5.13,3.43-1.92.79-3.97,1.2-6.05,1.2v18.68Z"/>
  <g>
    <rect class="cls-6" x="0" y=".47" width="1440" height="850"/>
    <path class="cls-3" d="M917,367.96v272.5h-145l145-272.5Z"/>
    <path class="cls-3" d="M917.5,365.97L1111.93.47h-194.42v365.49Z"/>
    <path class="cls-9" d="M933.12,337.53c-4.92-2.63-10.41-4.02-15.98-4.07l-.13,16.9c2.85.02,5.64.73,8.15,2.07l7.96-14.91Z"/>
    <path class="cls-3" d="M0,643.99l771-3-101,190H0v-187Z"/>
    <path class="cls-3" d="M918,640.49h521v80h-521v-80Z"/>
    <path class="cls-1" d="M917.5,605.8c-4.53.04-9.01.97-13.18,2.74-4.17,1.77-7.95,4.35-11.12,7.58-3.17,3.23-5.68,7.06-7.38,11.26-1.7,4.2-2.55,8.7-2.51,13.22l18.29-.16c-.02-2.13.38-4.24,1.18-6.21.8-1.97,1.97-3.77,3.47-5.29,1.49-1.52,3.27-2.73,5.23-3.56,1.96-.83,4.06-1.27,6.19-1.29l-.16-18.29Z"/>
    <path class="cls-1" d="M917.5,605.8c-4.53.04-9.01.97-13.18,2.74-4.17,1.77-7.95,4.35-11.12,7.58-3.17,3.23-5.68,7.06-7.38,11.26-1.7,4.2-2.55,8.7-2.51,13.23l18.29-.16c-.02-2.13.38-4.24,1.18-6.21s1.97-3.77,3.47-5.29c1.49-1.52,3.27-2.73,5.23-3.56,1.96-.83,4.06-1.27,6.19-1.29l-.16-18.29Z"/>
    <path class="cls-1" d="M917.5,605.8c-4.53.04-9.01.97-13.18,2.74-4.17,1.77-7.95,4.35-11.12,7.58-3.17,3.23-5.68,7.06-7.38,11.26-1.7,4.2-2.55,8.7-2.51,13.23l18.29-.16c-.02-2.13.38-4.24,1.18-6.21s1.97-3.77,3.47-5.29c1.49-1.52,3.27-2.73,5.23-3.56,1.96-.83,4.06-1.27,6.19-1.29l-.16-18.29Z"/>
    <path class="cls-1" d="M917.5,605.8c-4.53.04-9.01.97-13.18,2.74-4.17,1.77-7.95,4.35-11.12,7.58-3.17,3.23-5.68,7.06-7.38,11.26-1.7,4.2-2.55,8.7-2.51,13.23l18.29-.16c-.02-2.13.38-4.24,1.18-6.21s1.97-3.77,3.47-5.29c1.49-1.52,3.27-2.73,5.23-3.56,1.96-.83,4.06-1.27,6.19-1.29l-.16-18.29Z"/>
    <path class="cls-1" d="M917.5,605.8c-4.53.04-9.01.97-13.18,2.74-4.17,1.77-7.95,4.35-11.12,7.58-3.17,3.23-5.68,7.06-7.38,11.26-1.7,4.2-2.55,8.7-2.51,13.23l18.29-.16c-.02-2.13.38-4.24,1.18-6.21s1.97-3.77,3.47-5.29c1.49-1.52,3.27-2.73,5.23-3.56,1.96-.83,4.06-1.27,6.19-1.29l-.16-18.29Z"/>
    <path class="cls-9" d="M917.5,605.8c-4.53.04-9.01.97-13.18,2.74-4.17,1.77-7.95,4.35-11.12,7.58-3.17,3.23-5.68,7.06-7.38,11.26-1.7,4.2-2.55,8.7-2.51,13.23l18.29-.16c-.02-2.13.38-4.24,1.18-6.21s1.97-3.77,3.47-5.29c1.49-1.52,3.27-2.73,5.23-3.56,1.96-.83,4.06-1.27,6.19-1.29l-.16-18.29Z"/>
    <path class="cls-9" d="M916.5,674.5c4.53,0,9.02-.89,13.2-2.62,4.19-1.73,7.99-4.27,11.2-7.47,3.2-3.2,5.75-7.01,7.48-11.19,1.73-4.18,2.63-8.67,2.63-13.2h-18.29c0,2.12-.42,4.23-1.23,6.2-.82,1.97-2.01,3.75-3.52,5.26-1.51,1.51-3.29,2.7-5.26,3.51-1.97.81-4.08,1.23-6.2,1.23v18.29Z"/>
    <path class="cls-5" d="M917,.47v719.5"/>
    <path class="cls-5" d="M917,366.46h523"/>
    <g class="cls-7">
      <path class="cls-4" d="M916.5,401.46c4.53,0,9.02-.89,13.2-2.63,4.18-1.73,7.99-4.28,11.19-7.48,3.2-3.2,5.74-7.01,7.48-11.19,1.73-4.19,2.63-8.67,2.63-13.2s-.89-9.02-2.63-13.2c-1.73-4.19-4.28-7.99-7.48-11.19-3.2-3.2-7.01-5.74-11.19-7.48-4.19-1.73-8.67-2.63-13.2-2.63v18.68c2.08,0,4.13.41,6.05,1.2,1.92.8,3.66,1.96,5.13,3.43,1.47,1.47,2.63,3.21,3.43,5.13.79,1.92,1.2,3.98,1.2,6.05s-.41,4.13-1.2,6.05c-.8,1.92-1.96,3.66-3.43,5.13-1.47,1.47-3.21,2.63-5.13,3.43-1.92.79-3.97,1.2-6.05,1.2v18.68Z"/>
    </g>
    <circle class="cls-5" cx="917.5" cy="639.99" r="33.5"/>
    <circle class="cls-5" cx="917.5" cy="639.99" r="15.5"/>
    <path class="cls-9" d="M791,640.49c0,3.32-.87,6.57-2.52,9.45-1.65,2.88-4.02,5.27-6.88,6.95-2.86,1.68-6.11,2.57-9.42,2.61-3.32.03-6.58-.8-9.47-2.42l9.29-16.58h19Z"/>
    <path class="cls-9" d="M753,640.52c0-3.32.86-6.57,2.5-9.45,1.64-2.88,4.01-5.28,6.87-6.96s6.1-2.58,9.42-2.62c3.32-.04,6.58.79,9.48,2.41l-9.26,16.59-19,.03Z"/>
    <path class="cls-5" d="M669,831.47L1112.4.47"/>
    <circle class="cls-5" cx="772" cy="640.49" r="18"/>
    <g class="cls-2">
      <path class="cls-4" d="M736.5,639.99c0,6.1,1.62,12.1,4.69,17.37,3.07,5.27,7.49,9.64,12.8,12.65,5.31,3.01,11.33,4.55,17.43,4.48s12.08-1.77,17.31-4.91c5.24-3.14,9.54-7.61,12.49-12.96,2.94-5.35,4.41-11.38,4.26-17.48-.15-6.1-1.92-12.06-5.12-17.25-3.21-5.2-7.73-9.45-13.11-12.32l-16.25,30.43h-34.5Z"/>
    </g>
    <path class="cls-5" d="M0,643.3l1440-4.81"/>
    <g>
      <path class="cls-8" d="M202.11,442.53h.46v6.92h-.46c-12.74,0-24.63,5.08-33.48,14.28h0c-8.84,9.2-13.43,21.29-12.92,34.04.93,23.21,19.54,42.5,42.6,44.38l1.1.08c.91.05,1.82.08,2.72.08,24.07,0,44.21-18.55,46.26-42.42l.05-.54h-29.69l-.09.39c-1.77,7.64-8.61,13.12-16.53,13.12-4.69,0-9.06-1.87-12.3-5.27-3.23-3.4-4.89-7.85-4.66-12.55.43-8.7,7.57-15.78,16.28-16.11h.02c.21-.02.43-.02.66-.02,7.91,0,14.76,5.48,16.53,13.12l.09.39h109l.14-.25,16.16-27.99h8l-15.88,27.49-.43.75h38.06c1.21,0,2.29.62,2.89,1.67.6,1.05.6,2.29,0,3.34l-24.57,42.54h-8l23.03-39.87.43-.75h-35.85l-.14.25-23.32,40.37h-8l23.04-39.88.43-.75h-68.37l-.03.46c-2.03,27.77-25.26,49.42-53.22,49.42-1,0-2.01-.03-3.01-.08h0c-26.63-1.47-48.21-22.6-50.21-49.16-1.13-15.02,3.87-29.34,14.09-40.35,9.92-10.69,23.9-16.9,38.43-17.09h.69Z"/>
      <path class="cls-8" d="M802.86,341.12c.28-.75,1.35-.76,1.64,0l1.2,3.23c1.2,3.24,3.76,5.8,7,6.99l3.24,1.2h0c.75.28.76,1.35,0,1.64l-3.24,1.2c-3.24,1.2-5.8,3.76-7,6.99l-1.2,3.24h0c-.26.71-1.22.76-1.58.13l-.06-.13-1.2-3.23c-1.2-3.24-3.76-5.8-7-6.99l-3.24-1.2h0c-.75-.28-.76-1.35,0-1.64h0s3.24-1.2,3.24-1.2c3.24-1.2,5.8-3.76,7-6.99l1.2-3.24h0Z"/>
      <path class="cls-8" d="M740.63,562.99c5.49,0,9.93,4.45,9.93,9.93,0,5.48-4.45,9.93-9.93,9.93s-9.93-4.45-9.93-9.93c0-5.48,4.45-9.93,9.93-9.93Z"/>
      <path class="cls-8" d="M396.63,170.36l-33.86,58.03-.44.76h.88c20.48-.09,35.79-.15,45.76-.18l8.18-.02c2.06,0,3.9,1.24,4.71,3.17v.02l.04.09c.52,1.32.43,2.85-.27,4.25l-.15.28-1.22,2.15c-6.4,11.24-24.25,42.6-31.07,54.59h-7.97c4.17-7.33,24.62-43.25,32.35-56.84l.43-.75h-.86c-10.31,0-28.65.08-54.56.19h0v.5l-.43-.25-33.34,57.14h-8.01l33.03-56.6.44-.76h-.88c-12.69.06-26.59.13-37.31.19-5.36.03-9.94.05-13.17.07-1.62,0-2.9.01-3.77.02-.19,0-.36,0-.52,0l4.01-6.94c9.72-.05,32.54-.17,55.4-.27h.29s.14-.25.14-.25l34.18-58.58h8.01Z"/>
      <path class="cls-8" d="M691.09,424.21h79.03c6.59,0,12.87,3.23,16.35,8.8,3.73,5.98,3.84,13.24.34,19.3l-38.3,66.3c-1.03,1.77-3.3,2.38-5.08,1.36l-.33-.19c-1.53-1.1-2-3.2-1.04-4.86l38.3-66.31c2.26-3.9,2.03-8.64-.68-12.37-2.17-2.98-5.73-4.6-9.38-4.6h-79.22c-2.05,0-3.71-1.66-3.71-3.71s1.66-3.71,3.71-3.71Z"/>
      <path class="cls-8" d="M403.92,453.97c1.2,2.78,3.55,4.91,6.44,5.82h0s3.16,1,3.16,1l-3.16,1.01h0c-2.89.92-5.23,3.04-6.43,5.82h0s-1.07,2.49-1.07,2.49l-1.07-2.49c-1.2-2.78-3.55-4.91-6.44-5.82l-3.16-1.01,3.17-1.01c2.89-.92,5.23-3.04,6.43-5.82h0s1.07-2.49,1.07-2.49l1.07,2.49Z"/>
      <path class="cls-8" d="M431.34,453.97c1.2,2.78,3.55,4.91,6.44,5.82h0s3.16,1,3.16,1l-3.16,1.01h0c-2.88.92-5.23,3.04-6.43,5.82h0s-1.07,2.49-1.07,2.49l-1.08-2.49c-1.2-2.78-3.55-4.91-6.44-5.82l-3.16-1.01,3.17-1.01c2.88-.92,5.23-3.04,6.43-5.82h0s1.08-2.49,1.08-2.49l1.07,2.49Z"/>
      <path class="cls-8" d="M381.16,477.21h17.46c2.33,0,3.84,2.45,2.79,4.52l-14.23,28.22h0c-.71,1.42-2.44,1.99-3.85,1.27l-.07-.04c-1.37-.73-1.91-2.43-1.21-3.82h0s11.95-23.7,11.95-23.7l.37-.73h-13.21c-1.59,0-2.87-1.28-2.87-2.87s1.29-2.87,2.87-2.87Z"/>
      <path class="cls-8" d="M446.63,196.61c1.2,2.78,3.55,4.91,6.44,5.82h0s3.16,1,3.16,1l-3.16,1.01h0c-2.88.92-5.23,3.04-6.43,5.82h0s-1.08,2.49-1.08,2.49l-1.07-2.49c-1.2-2.78-3.55-4.91-6.43-5.82h0l-3.17-1.01,3.17-1.01c2.88-.92,5.23-3.04,6.43-5.82h0s1.07-2.49,1.07-2.49l1.08,2.49Z"/>
      <path class="cls-8" d="M474.35,196.61c1.2,2.78,3.55,4.91,6.44,5.82h0s3.16,1,3.16,1l-3.16,1.01h0c-2.89.92-5.23,3.04-6.43,5.82h0s-1.08,2.49-1.08,2.49l-1.07-2.49c-1.2-2.78-3.55-4.91-6.43-5.82h0l-3.16-1.01,3.16-1.01c2.89-.92,5.23-3.04,6.43-5.82h0s1.07-2.49,1.07-2.49l1.08,2.49Z"/>
      <path class="cls-8" d="M429.22,216.15h17.46c2.33,0,3.84,2.45,2.79,4.52l-14.23,28.22h0c-.71,1.41-2.44,1.99-3.85,1.27l-.07-.04c-1.37-.73-1.91-2.43-1.21-3.81h0s11.95-23.7,11.95-23.7l.37-.73h-13.21c-1.59,0-2.87-1.29-2.87-2.87s1.28-2.87,2.87-2.87Z"/>
      <path class="cls-8" d="M171.67,76.97c.44,0,.89.05,1.33.14h0c1.31.28,2.54,1.15,3.46,2.33.91,1.18,1.47,2.65,1.47,4.09v145.95h42.76c1.81,0,3.49.78,4.49,2.04h0c1.43,1.82,1.62,4.16.5,6.15h0s-73.3,129.2-73.3,129.2h-7.97l73.61-129.72.42-.75h-41.89c-3.05,0-5.54-2.48-5.54-5.53V85.83l-.93,1.62L8.93,366.83l-8.06.03L166.32,80.09h0c1.13-1.96,3.13-3.12,5.35-3.12Z"/>
      <path class="cls-8" d="M268.59,294.47l.11.06h0s5.65,3.21,5.65,3.21l-.18.36-14.74,25.94-.43.75h.87s30.45-.23,30.45-.23l.03.4h0s.05,6.27.05,6.27l-.13.14-.1.1h-.17s-34.65.26-34.65.26h-.29s-.14.25-.14.25l-19.7,34.66h-.26s-.2.01-.2.01l-.15-.23-23.18-40.89.11-.21c.07-.12.2-.2.33-.2h0l38.85-.29h.29s.14-.25.14-.25l17.11-30.1h.24s.09-.01.09-.01ZM246.18,331.79l-22.31.17h-.85s.42.75.42.75l11.09,19.57.14.25h.59l.14-.25,11.21-19.74.43-.75h-.87Z"/>
      <path class="cls-8" d="M512.92,182.17c1.71,0,2.92.39,3.78.91.86.52,1.39,1.2,1.72,1.82h0c1.04,1.95.47,4.18-.47,5.65h0s0,.02,0,.02l-1.42,2.49c-6.04,10.55-28.89,50.48-37.97,66.31l-.43.74h.86c7.79.04,21.91.15,35.61.26h.42l22.67.18c6.82.05,12.46.08,15.62.09h0c1.27,0,2.38.36,3.23,1.01,1.95,1.5,2.51,4.23,1.3,6.36h0s-55.37,97.91-55.37,97.91h0c-.09.16-.26.27-.46.27h-.08c-.13-.02-.25-.09-.33-.2l-.04-.06-2.58-4.46-20.29-35.79c-.09-.17-.09-.37,0-.54.1-.16.27-.26.46-.26h38.58l.14-.25,31.87-56.35.42-.74h-.85c-8.01-.04-22.19-.15-34.76-.25h-.28c-12.02-.1-24.34-.19-32.35-.23l-6.41-.03h-.28c-.68-.04-1.6-.2-2.5-.57-1.02-.42-1.99-1.1-2.6-2.14h0c-.75-1.29-.75-2.85,0-4.17,6.32-11.02,33.34-58.22,40.26-70.31l.43-.75h-.87s-80,.51-80,.51l-.04-6.92h.37s0,0,0,0c27.54-.17,48.2-.3,61.98-.39,6.89-.04,12.06-.08,15.5-.1,1.72-.01,3.02-.02,3.88-.02.43,0,.75,0,.97,0,.22,0,.32,0,.32,0ZM490.52,332.57l11,19.41.14.25h.59l.14-.25,10.97-19.41.42-.75h-23.7l.42.75Z"/>
      <path class="cls-8" d="M198.11,374.77h3.58c.46,0,.83.37.83.83v19.96h.49c26.39.24,51.1,10.54,69.82,29.12h-.02l.84.85.65.65h0c.66.67.65,1.75-.02,2.4h0s-7.24,7.12-7.24,7.12c-.67.66-1.75.65-2.4-.02h0s-.65-.66-.65-.66c-17.22-17.5-40.5-26.77-65.19-25.87-45.03,1.65-81.58,38.08-83.42,83.09-2.02,49.48,37.66,90.37,86.73,90.37h1.27c.88,0,1.61.66,1.7,1.51v.17s.09,10.16.09,10.16c0,.94-.75,1.71-1.69,1.71h-1.36c-55.34,0-100.36-46.78-100.36-100.31s42.17-97.39,95.04-100.17l.47-.02v-20.08c0-.46.37-.83.83-.83Z"/>
      <path class="cls-8" d="M461.46,438.47c.33,0,.65.01.96.05h0c2.72.29,5.11,1.89,6.44,4.33l.12.24c1.35,2.68,1.24,5.82-.29,8.38h0c-5.39,9.06-16.75,28.12-23.76,40.15l-.44.75h.86c7.64.04,21.45.14,34.84.26h1.46l22.75.17c6.82.05,12.43.08,15.48.08,1.78,0,3.37.92,4.26,2.45l.17.28c.72,1.45.68,3.2-.13,4.64l-46.7,82.58-3.04-5.25h0l-20.74-36.58h39.48l.14-.25,22.74-40.21.42-.74h-.85c-7.87-.04-21.49-.15-34.7-.25-16.18-.13-32.86-.26-39.1-.26-.71,0-1.75-.15-2.78-.57-1.02-.42-1.99-1.1-2.59-2.14h0c-.7-1.21-.75-2.66-.13-3.92l.13-.25c5.81-10.12,19.82-33.65,26.28-44.48h0c.32-.54.33-1.19.05-1.73h0c-.22-.44-.58-.73-1.07-.79h0c-.1-.01-.2-.01-.27-.01h-66.82v-6.92h66.82ZM466.02,548.67l11.01,19.41.43.77.44-.77,10.97-19.41.42-.75h-23.7l.42.75Z"/>
      <path class="cls-8" d="M650.67,393.15l-37.29,64.55-.22.39.36.27c9.47,6.92,15.1,17.94,15.1,29.64,0,20.24-16.48,36.72-36.74,36.72-5.17,0-10.17-1.06-14.88-3.15l-.41-.18-.23.39-13.43,23.25-.43.75h29.72v6.92h-33.72l-.14.25-17.28,29.91h-7.99l37.29-64.55.22-.39-.36-.27c-9.47-6.92-15.1-17.94-15.1-29.64,0-20.24,16.48-36.72,36.73-36.72,5.17,0,10.17,1.06,14.88,3.15l.41.18.23-.39,12.82-22.2.43-.75h-29.11v-6.92h33.1l.14-.25,17.88-30.96h8ZM609.39,464.6l-29.03,50.25-.07.11v.48l.31.13c3.59,1.47,7.38,2.22,11.27,2.22,16.44,0,29.81-13.37,29.81-29.8,0-9.18-4.3-17.9-11.56-23.54l-.45-.35-.29.5ZM591.88,458.2c-16.44,0-29.81,13.36-29.81,29.8,0,9.18,4.3,17.9,11.56,23.54l.45.35.29-.5,29.03-50.25.29-.49-.53-.22c-3.44-1.41-7.06-2.15-10.77-2.21h0s-.5-.01-.5-.01Z"/>
      <path class="cls-8" d="M680.31,451.28h62.41c1.91,0,3.46,1.55,3.46,3.46,0,1.91-1.55,3.46-3.46,3.46h-62.41c-1.91,0-3.46-1.55-3.46-3.46s1.55-3.46,3.46-3.46Z"/>
      <path class="cls-8" d="M660.53,483.52h71.5c.38,0,.75.04,1.12.12h0c1.74.35,3.22,1.54,3.95,3.16.73,1.62.63,3.52-.26,5.06h0s-20.88,38.25-20.88,38.25l-.4.74h10.38l-3.99,6.91h-10.16l-.14.26-24.47,44.82h-7.88l24.17-44.34.4-.74h-21.87l-.15.25-12.91,22.35c-.43.75-1.25,1.22-2.11,1.22-.43,0-.84-.11-1.21-.33h0s-1.77-1.02-1.77-1.02h0c-1.17-.67-1.57-2.16-.9-3.33h0s10.62-18.39,10.62-18.39l.43-.75h-13.64l-.14.25-12.09,20.92c-.43.75-1.25,1.22-2.11,1.22-.43,0-.85-.11-1.21-.33h0s-1.77-1.02-1.77-1.02l-.21-.14c-1-.72-1.31-2.1-.68-3.19h0s9.8-16.96,9.8-16.96l.43-.75h-18.36l-.14.26-24.48,44.81h-7.88l52.41-95.9c.67-1.16,1.72-2.02,2.96-2.46h0l1.77-.63h0c.61-.21,1.23-.32,1.87-.32ZM661.06,490.44c-.2,0-.4.03-.59.11l-.18.07h0c-.39.14-.71.41-.93.77h0s-21.14,38.73-21.14,38.73l-.4.74h19.5l-.59-.59,22.57-39.08.43-.75h-18.66ZM687.58,490.7l-22.76,39.41-.43.75h13.64l.14-.25,22.77-39.41.43-.75h-13.64l-.14.25ZM709.21,490.7l-22.77,39.41-.43.75h21.64l.14-.26,21.49-39.41.4-.74h-20.34l-.15.25Z"/>
      <path class="cls-8" d="M683.62,154.95c1.96-.15,3.65,1.4,3.71,3.38.05,1.87-1.38,3.44-3.24,3.58h0c-40.83,3.1-72.27,36.7-72.27,78.12,0,25.97,12.56,49.78,33.79,64.44h0c1.53,1.07,1.99,3.11,1.04,4.69h0s-.03.05-.03.05c-1.05,1.68-3.3,2.17-4.92,1.05h0c-23.17-15.97-36.87-41.92-36.87-70.23,0-22.36,8.6-43.5,24.2-59.52,14.39-14.77,33.27-23.7,53.63-25.48l.97-.08Z"/>
      <path class="cls-8" d="M691.08,362.71c0-1.88,1.48-3.42,3.36-3.49,63.8-2.25,115.07-54.93,115.07-119.19,0-40.08-19.91-77.16-53.29-99.35l-.44-.29-.27.46-17.82,30.27-.23.4.38.26c21.16,14.79,34.21,38.46,35.51,64.08h0c.1,1.97-1.5,3.63-3.49,3.63-1.87,0-3.39-1.47-3.49-3.35-1.22-23.95-13.62-45.95-33.69-59.43h0c-.74-.5-1.37-1.17-1.81-1.95h0c-1.04-1.82-1.03-4.06.04-5.87l19.35-32.88h0c1.11-2.02,2.1-2.87,2.89-3.24.59-.28,1.1-.31,1.58-.31h.47c.88,0,1.79.42,2.57.92,36.76,23.33,58.71,63.2,58.71,106.67,0,68.02-54.27,123.89-121.81,126.17-1.97.07-3.6-1.52-3.6-3.48h0Z"/>
      <path class="cls-8" d="M620.92,134.46c1.65-1.08,3.87-.58,4.9,1.1h0c.98,1.61.51,3.7-1.06,4.73-26.54,17.42-44.98,44.5-51.39,75.39l-.3,1.47c-.36,1.85-2.12,3.08-3.97,2.78h0c-1.95-.31-3.26-2.18-2.88-4.11l.23-1.17c6.71-32.86,26.27-61.68,54.47-80.18Z"/>
      <path class="cls-8" d="M690.19,177.2c34.72,0,62.86,28.13,62.86,62.83s-28.15,62.83-62.86,62.83-62.86-28.13-62.86-62.83,28.15-62.83,62.86-62.83ZM739.57,214.39l-5.61,2.85-.45.23.23.45c5.05,9.91,6.52,20.96,4.26,32.55-3.27,16.81-15.44,30.72-31.77,35.86-11.2,3.52-22.47,3.32-32.72-.4l-.47-.17-.17.47-2.15,5.91-.17.47.47.17c5.77,2.09,11.81,3.21,17.98,3.34l-.02.02h1.2c30.95,0,56.13-25.17,56.13-56.11,0-8.95-2.04-17.51-6.08-25.43l-.23-.45-.44.23ZM690.84,206.67c-.22-.63-1.21-.59-1.32.14h0c-2.63,16.76-15.79,29.91-32.56,32.54h0c-.77.12-.77,1.24,0,1.36h0c16.77,2.63,29.93,15.78,32.56,32.54h0c.12.77,1.23.77,1.36,0h0c2.63-16.76,15.79-29.91,32.55-32.54h0c.77-.12.77-1.23,0-1.36h0c-16.77-2.63-29.92-15.78-32.55-32.54h0s-.03-.14-.03-.14Z"/>
    </g>
  </g>
  <g>
    <path d="M1035.27,237.41h8.6l-13,22.9h-8.6l13-22.9ZM1066.47,218.31h36.3v7.6h-25.8v46.4h-7.8v-46.4h-13.2l-8.4,46.5h-7.8l8.4-46.5h-25.7v-7.6h36.2v-12.8h-27.2v-7.6h27.2v-11.5h7.8v11.5h27.2v7.6h-27.2v12.8ZM1079.97,237.41h8.8l13.7,23.7h-8.8l-13.7-23.7Z"/>
    <path d="M1120.37,254.22l29.7-25.8v10l-29.7,25.7v-9.9ZM1121.77,188.31h37.1v84.1h-7.8v-76.5h-29.3v-7.6ZM1143.67,214.81v8.9l-20.8-12.3v-8.9l20.8,12.3ZM1202.37,188.31v84.1h-7.7v-76.5h-30.9v-7.6h38.6ZM1184.07,223.31l-19.5-11.6v-8.9l19.5,11.6v8.9ZM1164.87,251.02l28.8-25v10l-28.8,24.9v-9.9Z"/>
    <path d="M1285.27,201.01l17.1,29.7h-8.8l-2.4-4.2h-67.5v-7.5h11.2l18.5-32.1h9l-18.5,32.1h42.9l-10.4-18h8.9ZM1233.17,271.32v-37.8h59v37.8h-59ZM1240.97,241.01v22.8h43.4v-22.8h-43.4Z"/>
    <path d="M1388.67,214.71l16.2,22.2v12.1l-7.1-9.8v4.2h-31.4v29h-7.6v-29h-31.3v-4.1l-7.1,8.1v-10.6l12.5-14.3-5.4-7.5,4.5-5.1,5.4,7.4,3.8-4.3-5.4-7.4,4.6-5.1,5.3,7.4,8.7-10h-14.3l-17.7,20v-9.8l18.8-21.2h8.7l-4.2,4.8h16.9v7.4l-18.9,21.6h39.2v7.2h-40.5v-5.7l-12.1,13.8h65.2l-34.8-47.8h8.8l5.7,7.8v-4.9h28.5l-15,23.6ZM1324.37,270.02l18.1-21.2h9.9l-18.1,21.2h-9.9ZM1373.27,248.81h10.1l18.1,21.2h-10l-18.2-21.2ZM1390.17,198.31h-13.3l7.1,9.8,6.2-9.8Z"/>
  </g>
  <g>
    <path d="M1322.57,329.57v6.15h-23.25c0-17.92,17.02-27.15,17.02-40.65,0-2.7-1.8-5.55-4.72-5.55-3.6,0-4.72,3.6-4.72,6.67v4.65h-3.53l-2.62-4.88c.08-5.92,3.08-12.6,10.88-12.6,6.3,0,10.88,5.25,10.88,11.7,0,13.65-12.75,22.12-16.2,34.5h16.27Z"/>
    <path d="M1350.09,323.87c0,7.27-4.27,12.6-10.87,12.6s-10.95-5.55-10.95-12.6v-27.9c0-7.27,4.42-12.6,10.95-12.6s10.87,5.48,10.87,12.6v27.9ZM1344.09,295.97c0-4.12-1.8-6.6-4.87-6.6s-4.95,2.47-4.95,6.6v27.9c0,4.12,1.88,6.6,4.95,6.6s4.87-2.48,4.87-6.6v-27.9Z"/>
    <path d="M1378.29,329.57v6.15h-23.25c0-17.92,17.02-27.15,17.02-40.65,0-2.7-1.8-5.55-4.72-5.55-3.6,0-4.72,3.6-4.72,6.67v4.65h-3.53l-2.62-4.88c.08-5.92,3.08-12.6,10.88-12.6,6.3,0,10.88,5.25,10.88,11.7,0,13.65-12.75,22.12-16.2,34.5h16.27Z"/>
    <path d="M1405.74,314.72v8.92c0,8.1-4.65,12.82-10.87,12.82-7.72,0-10.88-5.48-10.88-12.97v-2.55h6v2.55c0,3.9,1.35,7.05,4.88,7.05,2.77,0,4.72-2.77,4.72-7.05v-8.4c0-3.22-1.28-6.45-4.72-6.45-1.95,0-3.9,1.27-4.5,4.58h-6.38v-29.1h21l-3.22,6h-11.77v15.9c1.5-1.87,3.6-3.15,6.22-3.15,6.6,0,9.52,5.62,9.52,11.85Z"/>
  </g>
  <g>
    <path d="M1013.92,553.7h-5.33v-39.52h-1.95l-2.79-5.2h10.08v44.72Z"/>
    <path d="M1028.16,553.7h-5.33v-39.52h-1.95l-2.79-5.2h10.08v44.72Z"/>
    <path d="M1031.53,557.54l14.24-52.39h3.64l-14.24,52.39h-3.64Z"/>
    <path d="M1070.79,543.43c0,6.3-3.71,10.92-9.43,10.92s-9.49-4.81-9.49-10.92v-24.18c0-6.31,3.84-10.92,9.49-10.92s9.43,4.75,9.43,10.92v24.18ZM1065.59,519.25c0-3.58-1.56-5.72-4.23-5.72s-4.29,2.15-4.29,5.72v24.18c0,3.58,1.62,5.72,4.29,5.72s4.23-2.14,4.23-5.72v-24.18Z"/>
    <path d="M1095.23,548.37v5.33h-20.15c0-15.54,14.75-23.53,14.75-35.23,0-2.34-1.56-4.81-4.09-4.81-3.12,0-4.09,3.12-4.09,5.79v4.03h-3.06l-2.28-4.22c.07-5.14,2.67-10.92,9.43-10.92,5.46,0,9.43,4.55,9.43,10.14,0,11.83-11.05,19.18-14.04,29.9h14.11Z"/>
    <path d="M1113.7,502.65c-4.74,7.62-7.11,17.18-7.11,28.69s2.37,21.07,7.11,28.69l-1.78,1.78c-6.94-8.8-10.41-18.96-10.41-30.47s3.47-21.67,10.41-30.47l1.78,1.78Z"/>
    <path d="M1172.57,557.54h-31.07v-52.39h31.07v52.39ZM1166.98,510.67h-19.89v15.73h19.89v-15.73ZM1147.09,552.01h19.89v-20.09h-19.89v20.09Z"/>
    <path d="M1199.98,560.03c4.74-7.62,7.11-17.18,7.11-28.69s-2.37-21.07-7.11-28.69l1.78-1.78c6.94,8.8,10.41,18.96,10.41,30.47s-3.47,21.67-10.41,30.47l-1.78-1.78Z"/>
    <path d="M1220,537.32l2.73-5.07h21.19l-2.73,5.07h-21.19Z"/>
    <path d="M1258.54,553.7h-5.33v-39.52h-1.95l-2.79-5.2h10.08v44.72Z"/>
    <path d="M1272.78,553.7h-5.33v-39.52h-1.95l-2.79-5.2h10.08v44.72Z"/>
    <path d="M1276.15,557.54l14.24-52.39h3.64l-14.24,52.39h-3.64Z"/>
    <path d="M1315.35,522.44c0,4.1-2.14,6.44-5.13,7.67,3.25,1.04,5.13,3.31,5.13,7.73v6.57c0,4.36-3.25,9.95-9.29,9.95-7.28,0-9.56-5.66-9.56-11.63v-3.97h5.2v4.49c0,3.19,1.37,5.79,4.1,5.79,2.28,0,4.22-1.82,4.22-4.81v-5.72c0-1.69-.39-5.59-4.09-5.59h-3.51v-5.33h3.64c2.6,0,3.96-2.28,3.96-5.66v-3.45c0-2.99-1.95-4.81-4.22-4.81-2.73,0-4.1,2.47-4.1,5.79v4.03h-2.92l-2.28-4.22c.07-5.53,2.93-10.92,9.3-10.92,7.15,0,9.55,6.24,9.55,10.14v3.96Z"/>
    <path d="M1333.82,502.65c-4.74,7.62-7.11,17.18-7.11,28.69s2.37,21.07,7.11,28.69l-1.78,1.78c-6.94-8.8-10.41-18.96-10.41-30.47s3.47-21.67,10.41-30.47l1.78,1.78Z"/>
    <path d="M1390.86,557.54h-9.75l-2.86-5.33h7.22v-16.51h-16.71v21.84h-7.67l-2.86-5.33h5.13v-47.06h27.5v52.39ZM1385.47,510.48h-16.71v7.28h16.71v-7.28ZM1368.76,530.37h16.71v-7.28h-16.71v7.28Z"/>
    <path d="M1420.09,560.03c4.74-7.62,7.11-17.18,7.11-28.69s-2.37-21.07-7.11-28.69l1.78-1.78c6.94,8.8,10.41,18.96,10.41,30.47s-3.47,21.67-10.41,30.47l-1.78-1.78Z"/>
  </g>
  <g>
    <path d="M1196.93,614.08h-4.92v-36.48h-1.8l-2.58-4.8h9.3v41.28Z"/>
    <path d="M1219.79,604.6c0,5.82-3.42,10.08-8.7,10.08s-8.76-4.44-8.76-10.08v-22.32c0-5.82,3.54-10.08,8.76-10.08s8.7,4.38,8.7,10.08v22.32ZM1214.99,582.28c0-3.3-1.44-5.28-3.9-5.28s-3.96,1.98-3.96,5.28v22.32c0,3.3,1.5,5.28,3.96,5.28s3.9-1.98,3.9-5.28v-22.32Z"/>
    <path d="M1227.23,591.22v-8.4h4.92v8.4h-4.92ZM1227.23,609.22v-8.4h4.92v8.4h-4.92Z"/>
    <path d="M1257.05,604.6c0,5.82-3.42,10.08-8.7,10.08s-8.76-4.44-8.76-10.08v-22.32c0-5.82,3.54-10.08,8.76-10.08s8.7,4.38,8.7,10.08v22.32ZM1252.25,582.28c0-3.3-1.44-5.28-3.9-5.28s-3.96,1.98-3.96,5.28v22.32c0,3.3,1.5,5.28,3.96,5.28s3.9-1.98,3.9-5.28v-22.32Z"/>
    <path d="M1279.07,604.6c0,5.82-3.42,10.08-8.7,10.08s-8.76-4.44-8.76-10.08v-22.32c0-5.82,3.54-10.08,8.76-10.08s8.7,4.38,8.7,10.08v22.32ZM1274.27,582.28c0-3.3-1.44-5.28-3.9-5.28s-3.96,1.98-3.96,5.28v22.32c0,3.3,1.5,5.28,3.96,5.28s3.9-1.98,3.9-5.28v-22.32Z"/>
    <path d="M1311.11,587.94l3.25,3.64c-1.23,2.02-2.27,3.46-3.11,4.33-.84.87-1.71,1.51-2.61,1.91-.9.4-1.84.6-2.81.6-.68,0-1.39-.1-2.11-.31s-2.26-.8-4.6-1.77c-2.58-1.07-4.09-1.68-4.53-1.82s-.92-.21-1.45-.21c-.96,0-1.83.33-2.62.98s-1.76,2.05-2.92,4.17l-3.25-3.73c1.17-2.08,2.19-3.58,3.06-4.51.87-.93,1.78-1.62,2.72-2.07s1.89-.68,2.83-.68c.84,0,1.68.12,2.52.35,1.19.33,2.81.95,4.86,1.85,2.13.92,3.47,1.46,4.01,1.63s1.03.25,1.44.25c.84,0,1.65-.3,2.43-.89s1.74-1.84,2.87-3.74Z"/>
    <path d="M1327.37,614.08h-4.92v-36.48h-1.8l-2.58-4.8h9.3v41.28Z"/>
    <path d="M1350.17,601.66v2.76c0,6.84-4.2,10.26-8.7,10.26-5.58,0-8.7-4.62-8.7-10.26v-2.76c0-3.96,1.56-6.72,3.9-8.28-1.98-1.86-3.3-4.8-3.3-8.16v-2.76c0-2.88.72-5.4,2.1-7.2,1.5-1.92,3.6-2.94,6-2.94s4.5,1.02,6,2.94c1.38,1.8,2.16,4.32,2.16,7.2v2.76c0,3.42-1.38,6.36-3.36,8.16,2.52,1.68,3.9,4.8,3.9,8.28ZM1345.25,601.66c0-3.3-.84-6.24-3.78-6.24-3.24,0-3.78,3.3-3.78,6.24v2.94c0,3.72,1.8,5.28,3.78,5.28,2.58,0,3.78-2.34,3.78-5.28v-2.94ZM1338.17,585.22c0,2.58.84,5.58,3.3,5.58,1.62,0,3.36-1.62,3.36-5.58v-2.76c0-2.58-.9-5.34-3.36-5.34-1.62,0-3.3,1.38-3.3,5.34v2.76Z"/>
    <path d="M1357.61,591.22v-8.4h4.92v8.4h-4.92ZM1357.61,609.22v-8.4h4.92v8.4h-4.92Z"/>
    <path d="M1387.43,604.6c0,5.82-3.42,10.08-8.7,10.08s-8.76-4.44-8.76-10.08v-22.32c0-5.82,3.54-10.08,8.76-10.08s8.7,4.38,8.7,10.08v22.32ZM1382.63,582.28c0-3.3-1.44-5.28-3.9-5.28s-3.96,1.98-3.96,5.28v22.32c0,3.3,1.5,5.28,3.96,5.28s3.9-1.98,3.9-5.28v-22.32Z"/>
    <path d="M1409.45,604.6c0,5.82-3.42,10.08-8.7,10.08s-8.76-4.44-8.76-10.08v-22.32c0-5.82,3.54-10.08,8.76-10.08s8.7,4.38,8.7,10.08v22.32ZM1404.65,582.28c0-3.3-1.44-5.28-3.9-5.28s-3.96,1.98-3.96,5.28v22.32c0,3.3,1.5,5.28,3.96,5.28s3.9-1.98,3.9-5.28v-22.32Z"/>
  </g>
</svg>
