<svg width="648" height="36" viewBox="0 0 648 36" fill="none" xmlns="http://www.w3.org/2000/svg">
<path d="M17.6455 1.24414C17.7643 0.939322 18.1722 0.919911 18.3271 1.18652L18.3545 1.24414L20.1641 5.89551C21.9384 10.4528 25.5472 14.0616 30.1045 15.8359L34.7559 17.6445V17.6455C35.0811 17.7722 35.0811 18.2278 34.7559 18.3545L30.1045 20.1641C25.6896 21.883 22.165 25.3231 20.3359 29.6797L20.1641 30.1045L18.3545 34.7559C18.2357 35.0607 17.8278 35.0801 17.6729 34.8135L17.6455 34.7559L15.8359 30.1045L15.6641 29.6797C13.835 25.3231 10.3104 21.883 5.89551 20.1641L1.24316 18.3545H1.24414C0.919053 18.2278 0.9183 17.7714 1.24316 17.6445L5.89551 15.8359C10.4528 14.0616 14.0616 10.4528 15.8359 5.89551L17.6455 1.24414Z" fill="#191C4F" stroke="#191C4F" stroke-width="2"/>
<path d="M629.646 1.24414C629.764 0.939319 630.172 0.919912 630.327 1.18652L630.354 1.24414L632.164 5.89551C633.938 10.4528 637.547 14.0616 642.104 15.8359L646.756 17.6445V17.6455C647.081 17.7722 647.081 18.2278 646.756 18.3545L642.104 20.1641C637.69 21.883 634.165 25.3231 632.336 29.6797L632.164 30.1045L630.354 34.7559C630.236 35.0607 629.828 35.0801 629.673 34.8135L629.646 34.7559L627.836 30.1045L627.664 29.6797C625.835 25.3231 622.31 21.883 617.896 20.1641L613.243 18.3545H613.244C612.919 18.2278 612.918 17.7714 613.243 17.6445L617.896 15.8359C622.453 14.0616 626.062 10.4528 627.836 5.89551L629.646 1.24414Z" fill="#191C4F" stroke="#191C4F" stroke-width="2"/>
<line x1="63.998" y1="17.5" x2="597.999" y2="16.9681" stroke="#191C4F" stroke-width="2"/>
</svg>
