<svg width="366" height="342" viewBox="0 0 366 342" fill="none" xmlns="http://www.w3.org/2000/svg">
<style>
  * {
    color: #191c4f;
  }

  @media (prefers-color-scheme: dark) {
    * {
      color: #fff;
    }
  }
</style>
<path d="M118.519 258.627C116.779 261.424 113.038 262.245 110.324 260.375C76.3973 236.976 56.3212 198.939 56.3212 157.457C56.3212 124.689 68.909 93.7119 91.7624 70.2399C113.164 48.2563 141.37 35.0933 171.728 32.7877C175.01 32.5385 177.817 35.1332 177.91 38.4256V38.4356C178 41.5486 175.611 44.1532 172.505 44.3891C113.433 48.8742 67.9423 97.5159 67.9423 157.463C67.9423 195.052 86.1147 229.52 116.835 250.753C119.406 252.531 120.167 255.983 118.516 258.637L118.519 258.627Z" fill="currentColor"/>
<path d="M181.924 336.193C181.93 339.472 184.648 342.11 187.923 341.997C286.656 338.661 365.997 256.953 365.997 157.457C365.997 93.8846 333.914 35.5684 280.174 1.45183C278.998 0.707636 277.54 0.00331009 276.035 0.00331009C274.357 0.0298884 271.527 -0.478422 268.201 5.52828L240.022 53.4324C238.345 56.2862 238.318 59.8444 239.959 62.7149C240.66 63.9441 241.65 65.0073 242.826 65.7946C271.859 85.3065 289.795 117.151 291.563 151.809C291.722 154.922 294.25 157.38 297.367 157.377C300.669 157.377 303.343 154.623 303.177 151.324C301.29 113.775 282.168 79.0905 251.168 57.4191L277.108 13.3224C325.516 45.5154 354.372 99.2966 354.372 157.457C354.372 250.687 280.031 327.109 187.522 330.372C184.392 330.482 181.914 333.053 181.92 336.183V336.193H181.924Z" fill="currentColor"/>
<path d="M0.10632 122.044C9.58123 73.2632 38.3648 30.4289 80.0783 3.03657C82.8224 1.23256 86.5233 2.06978 88.2343 4.87047C89.8721 7.54491 89.0848 11.03 86.4602 12.7509C47.3679 38.4223 20.3917 78.5589 11.5181 124.264C10.9201 127.343 7.99654 129.393 4.90025 128.895C1.65779 128.373 -0.521576 125.267 0.10632 122.044Z" fill="currentColor"/>
<path d="M181.355 65.1933C130.403 65.1933 89.098 106.499 89.098 157.453C89.098 208.407 130.403 249.713 181.355 249.713C232.308 249.713 273.613 208.407 273.613 157.453C273.613 106.499 232.308 65.1933 181.355 65.1933ZM133.081 157.188C157.814 153.314 177.216 133.912 181.086 109.18C181.133 108.875 181.575 108.875 181.625 109.18C185.498 133.915 204.9 153.317 229.63 157.188C229.936 157.234 229.936 157.676 229.63 157.726C204.897 161.6 185.495 181.002 181.625 205.733C181.578 206.039 181.136 206.039 181.086 205.733C177.213 180.998 157.811 161.596 133.081 157.726C132.775 157.679 132.775 157.237 133.081 157.188ZM181.355 238.464C171.851 238.464 162.542 236.833 153.685 233.614L156.818 224.992C171.894 230.471 188.468 230.763 204.923 225.58C228.969 218.009 246.866 197.523 251.68 172.779C254.995 155.739 252.836 139.48 245.414 124.898L253.587 120.735C259.411 132.177 262.364 144.526 262.364 157.45C262.364 202.118 226.026 238.461 181.355 238.461V238.464Z" fill="currentColor"/>
</svg>
