<svg width="50" height="55" viewBox="0 0 64 69" fill="none" xmlns="http://www.w3.org/2000/svg">
<path d="M27.1515 9.05402C29.2246 5.18263 34.7754 5.18263 36.8485 9.05402L55.377 43.6535C57.3391 47.3174 54.6847 51.75 50.5285 51.75H13.4715C9.31532 51.75 6.66089 47.3174 8.62295 43.6535L27.1515 9.05402Z" fill="#191C4F"/>
<path d="M34.457 21L34 37.8047H29.7109L29.2422 21H34.457ZM31.8555 45.3047C31.082 45.3047 30.418 45.0313 29.8633 44.4844C29.3086 43.9297 29.0352 43.2656 29.043 42.4922C29.0352 41.7266 29.3086 41.0703 29.8633 40.5234C30.418 39.9766 31.082 39.7031 31.8555 39.7031C32.5977 39.7031 33.25 39.9766 33.8125 40.5234C34.375 41.0703 34.6602 41.7266 34.668 42.4922C34.6602 43.0078 34.5234 43.4805 34.2578 43.9102C34 44.332 33.6602 44.6719 33.2383 44.9297C32.8164 45.1797 32.3555 45.3047 31.8555 45.3047Z" fill="white"/>
</svg>
