<svg width="10" height="15" viewBox="0 0 10 15" fill="none" xmlns="http://www.w3.org/2000/svg" role="presentation">
<style>
  [data-location="iniad"] path {
    fill: var(--location-iniad);
  }
  [data-location="wellb"] path {
    fill: var(--location-wellb);
  }
  [data-location="helspo"] path {
    fill: var(--location-helspo);
  }
</style>
<path d="M4.80022 15C4.64021 15 4.50306 14.95 4.38877 14.85C4.27448 14.75 4.18876 14.6187 4.13162 14.4562C3.91446 13.7562 3.64016 13.1 3.30872 12.4875C2.98871 11.875 2.53726 11.1562 1.95437 10.3312C1.37149 9.50625 0.897184 8.71875 0.531453 7.96875C0.177151 7.21875 0 6.3125 0 5.25C0 3.7875 0.462878 2.55 1.38863 1.5375C2.32582 0.5125 3.46301 0 4.80022 0C6.13742 0 7.2689 0.5125 8.19466 1.5375C9.13184 2.55 9.60044 3.7875 9.60044 5.25C9.60044 6.3875 9.40043 7.3375 9.00041 8.1C8.61182 8.85 8.16037 9.59375 7.64606 10.3312C7.02889 11.2312 6.5603 11.9812 6.24028 12.5812C5.9317 13.1687 5.67454 13.7937 5.46882 14.4562C5.41167 14.6312 5.32024 14.7688 5.19452 14.8688C5.08023 14.9563 4.9488 15 4.80022 15ZM4.80022 7.125C5.28024 7.125 5.68597 6.94375 6.01742 6.58125C6.34886 6.21875 6.51458 5.775 6.51458 5.25C6.51458 4.725 6.34886 4.28125 6.01742 3.91875C5.68597 3.55625 5.28024 3.375 4.80022 3.375C4.3202 3.375 3.91446 3.55625 3.58302 3.91875C3.25158 4.28125 3.08585 4.725 3.08585 5.25C3.08585 5.775 3.25158 6.21875 3.58302 6.58125C3.91446 6.94375 4.3202 7.125 4.80022 7.125Z" fill="var(--location-other)" />
</svg>
