<svg width="38px" height="38px" viewBox="0 0 38 38" version="1.1" xmlns="http://www.w3.org/2000/svg" xmlns:xlink="http://www.w3.org/1999/xlink" fill="none" role="presentation">
    <g transform="matrix(0.487179,0,0,0.487179,1.52154,1.5215)">
        <g>
            <path d="M33.805,2.096C34.356,0.681 36.305,0.636 36.943,1.963L37.001,2.096L40.561,11.245C43.952,19.956 50.849,26.853 59.56,30.244L68.709,33.805C70.124,34.356 70.169,36.305 68.842,36.943L68.709,37.001L59.56,40.561C50.849,43.952 43.952,50.849 40.561,59.56L37.001,68.709C36.45,70.124 34.501,70.169 33.862,68.842L33.805,68.709L30.244,59.56C26.959,51.121 20.384,44.385 12.057,40.889L11.245,40.561L2.096,37.001C0.635,36.432 0.635,34.373 2.095,33.804L11.245,30.244C19.684,26.959 26.42,20.384 29.916,12.057L30.244,11.245L33.805,2.096Z" stroke="currentColor" />
        </g>
    </g>
</svg>
