<svg width="41" height="41" viewBox="0 0 41 41" fill="none" xmlns="http://www.w3.org/2000/svg" role="presentation">
<path d="M18.5928 3.33789C19.1822 1.4762 21.8178 1.4762 22.4072 3.33789L25.4473 12.9463C25.8402 14.1873 26.8127 15.1598 28.0537 15.5527L37.6621 18.5928C39.5238 19.1822 39.5238 21.8178 37.6621 22.4072L28.0537 25.4473C26.8127 25.8402 25.8402 26.8127 25.4473 28.0537L22.4072 37.6621C21.8178 39.5238 19.1822 39.5238 18.5928 37.6621L15.5527 28.0537C15.1598 26.8127 14.1873 25.8402 12.9463 25.4473L3.33789 22.4072C1.4762 21.8178 1.4762 19.1822 3.33789 18.5928L12.9463 15.5527C14.1873 15.1598 15.1598 14.1873 15.5527 12.9463L18.5928 3.33789Z" stroke="currentColor" />
</svg>
