<svg width="50" height="47" viewBox="0 0 50 47" xmlns="http://www.w3.org/2000/svg"><path d="M16.19 35.331a.793.793 0 0 1-1.119.239 16.99 16.99 0 0 1-7.377-14.06 17 17 0 0 1 4.842-11.915A16.98 16.98 0 0 1 23.46 4.48a.79.79 0 0 1 .844.77v.002a.795.795 0 0 1-.738.813c-8.07.613-14.284 7.258-14.284 15.447 0 5.135 2.482 9.844 6.679 12.744a.797.797 0 0 1 .23 1.077zm8.663 10.596c0 .448.372.809.82.793 13.487-.456 24.326-11.618 24.326-25.21 0-8.684-4.383-16.651-11.724-21.312-.161-.101-.36-.198-.566-.198-.23.004-.616-.065-1.07.755L32.789 7.3a1.27 1.27 0 0 0-.008 1.268 1.26 1.26 0 0 0 .391.421 15.07 15.07 0 0 1 6.658 11.75.796.796 0 0 0 .793.761.79.79 0 0 0 .794-.827 16.67 16.67 0 0 0-7.105-12.828l3.544-6.024A23.58 23.58 0 0 1 48.41 21.51c0 12.736-10.156 23.176-22.794 23.622a.793.793 0 0 0-.765.794zM.014 16.672A25.2 25.2 0 0 1 10.94.415a.795.795 0 0 1 1.115.25.79.79 0 0 1-.243 1.077A23.6 23.6 0 0 0 1.573 16.976a.79.79 0 0 1-.904.632.796.796 0 0 1-.655-.936" fill="currentColor"/><path d="M24.775 8.906c-6.96 0-12.603 5.643-12.603 12.604s5.642 12.603 12.603 12.603S37.378 28.47 37.378 21.51 31.736 8.906 24.775 8.906M18.18 21.473a7.87 7.87 0 0 0 6.558-6.558c.007-.042.067-.042.074 0a7.87 7.87 0 0 0 6.558 6.558c.042.007.042.067 0 .074a7.87 7.87 0 0 0-6.558 6.558c-.007.042-.067.042-.074 0a7.87 7.87 0 0 0-6.558-6.558c-.042-.006-.042-.067 0-.074m6.595 11.104c-1.298 0-2.57-.223-3.78-.663l.428-1.178c2.06.749 4.324.789 6.572.08 3.284-1.034 5.73-3.832 6.387-7.213.453-2.327.158-4.549-.856-6.54l1.117-.57a10.95 10.95 0 0 1 1.199 5.016c0 6.102-4.965 11.067-11.067 11.067z" fill="currentColor"/></svg>
