<svg width="50" height="50" viewBox="0 0 50 50" fill="none" xmlns="http://www.w3.org/2000/svg">
<path d="M16.1924 37.8091C15.9545 38.2181 15.4435 38.3381 15.0727 38.0646C10.4379 34.6437 7.69531 29.0827 7.69531 23.018C7.69531 18.2274 9.41496 13.6986 12.537 10.267C15.4607 7.05298 19.314 5.12857 23.4613 4.79148C23.9097 4.75505 24.2932 5.1344 24.3059 5.61575V5.6172C24.3181 6.07232 23.9918 6.45312 23.5675 6.48761C15.4975 7.14333 9.28289 14.2547 9.28289 23.019C9.28289 28.5144 11.7655 33.5537 15.9622 36.658C16.3135 36.9178 16.4175 37.4225 16.1919 37.8106L16.1924 37.8091Z" fill="currentColor"/>
<path d="M24.854 49.1509C24.8549 49.6303 25.2261 50.016 25.6736 49.9995C39.1617 49.5118 50.0006 37.5661 50.0006 23.0198C50.0006 13.7256 45.6178 5.19981 38.2762 0.211971C38.1156 0.103171 37.9163 0.000198387 37.7107 0.000198387C37.4815 0.00408413 37.0948 -0.0702307 36.6405 0.807947L32.791 7.81151C32.5618 8.22874 32.5581 8.74894 32.7823 9.1686C32.8781 9.34832 33.0133 9.50375 33.174 9.61886C37.1402 12.4715 39.5906 17.1271 39.832 22.1941C39.8538 22.6492 40.1992 23.0086 40.6249 23.0082C41.076 23.0082 41.4414 22.6055 41.4187 22.1232C41.1609 16.6336 38.5485 11.5627 34.3136 8.39437L37.8573 1.94744C44.4704 6.65404 48.4126 14.5168 48.4126 23.0198C48.4126 36.65 38.2567 47.823 25.6187 48.3C25.1912 48.316 24.8526 48.6919 24.8535 49.1495V49.1509H24.854Z" fill="currentColor"/>
<path d="M0.0147414 17.841C1.30913 10.7092 5.24131 4.44681 10.9399 0.442073C11.3148 0.178328 11.8204 0.300729 12.0541 0.710189C12.2779 1.10119 12.1703 1.61071 11.8117 1.86231C6.47126 5.61545 2.78597 11.4834 1.57373 18.1654C1.49203 18.6157 1.09264 18.9154 0.669651 18.8425C0.226691 18.7663 -0.0710369 18.3121 0.0147414 17.841Z" fill="currentColor"/>
<path d="M24.7754 9.5293C17.8146 9.5293 12.1719 15.5682 12.1719 23.0177C12.1719 30.4671 17.8146 36.5061 24.7754 36.5061C31.7361 36.5061 37.3789 30.4671 37.3789 23.0177C37.3789 15.5682 31.7361 9.5293 24.7754 9.5293ZM18.1804 22.9788C21.5594 22.4125 24.2099 19.5759 24.7386 15.9602C24.745 15.9155 24.8053 15.9155 24.8121 15.9602C25.3413 19.5764 27.9918 22.413 31.3703 22.9788C31.4121 22.9856 31.4121 23.0502 31.3703 23.0575C27.9914 23.6239 25.3409 26.4604 24.8121 30.0761C24.8058 30.1208 24.7454 30.1208 24.7386 30.0761C24.2094 26.46 21.5589 23.6234 18.1804 23.0575C18.1387 23.0507 18.1387 22.9861 18.1804 22.9788ZM24.7754 34.8614C23.4769 34.8614 22.2052 34.6229 20.9952 34.1523L21.4232 32.8918C23.4828 33.6928 25.7471 33.7355 27.995 32.9778C31.28 31.8708 33.7249 28.8759 34.3825 25.2583C34.8355 22.767 34.5405 20.3899 33.5266 18.2581L34.6431 17.6495C35.4387 19.3223 35.8421 21.1277 35.8421 23.0172C35.8421 29.5477 30.8779 34.8614 24.7754 34.8614Z" fill="currentColor"/>
</svg>
