<?xml version="1.0" encoding="UTF-8"?>
<svg id="_レイヤー_2" data-name="レイヤー 2" xmlns="http://www.w3.org/2000/svg" viewBox="0 0 60.93 44.41">
  <g id="_レイアウト" data-name="レイアウト">
    <g>
      <path d="M15.64,44.41h45.28l-5.45-8.38h-6.14l-3.47-25.21-4.82.66c-.66-.56-1.95-1.57-4.22-2.98-2.13-1.33-4.58-2.03-6.55-2.03h-12.23l-1.77-1.06-7.3,10.85,3.35,2.04,4.39,6.23c.49.7,1.15,1.26,1.92,1.63,0,0,2.97,1.4,5.34,2.58.86.43,1.86.81,2.94,1.14l.84,6.12h-6.66l-5.45,8.38ZM32.84,31.52c3.3.88,6.07-2.47,3.36-4.73-3.52-2.94-3.64-2.95-3.64-2.95-1.17-.95-1.85-2.37-1.86-3.88,0-1.5.65-2.93,1.81-3.9l1.25-1.04,9.95-1.37,3.08,22.37.46,3.35h-16.5l-.46-3.35-.74-5.36c1.11.3,2.24.57,3.28.85Z" style="fill: #1a162f;"/>
      <polygon points="9.03 0 0 13.52 6.46 17.68 15.58 4.16 9.03 0" style="fill: #1a162f;"/>
    </g>
  </g>
</svg>